<svg width="235" height="59" viewBox="0 0 235 59" fill="none" xmlns="http://www.w3.org/2000/svg">
<path d="M75.475 32.448L73.363 26.676C73.259 26.42 73.151 26.116 73.039 25.764C72.927 25.412 72.815 25.032 72.703 24.624C72.599 25.032 72.491 25.416 72.379 25.776C72.267 26.128 72.159 26.436 72.055 26.7L69.955 32.448H75.475ZM81.175 39H78.679C78.399 39 78.171 38.932 77.995 38.796C77.819 38.652 77.687 38.476 77.599 38.268L76.303 34.728H69.115L67.819 38.268C67.755 38.452 67.631 38.62 67.447 38.772C67.263 38.924 67.035 39 66.763 39H64.243L71.071 21.648H74.359L81.175 39ZM90.9949 29.292C90.9069 29.404 90.8189 29.492 90.7309 29.556C90.6509 29.62 90.5309 29.652 90.3709 29.652C90.2189 29.652 90.0709 29.608 89.9269 29.52C89.7829 29.424 89.6109 29.32 89.4109 29.208C89.2109 29.088 88.9709 28.984 88.6909 28.896C88.4189 28.8 88.0789 28.752 87.6709 28.752C87.1509 28.752 86.6949 28.848 86.3029 29.04C85.9109 29.224 85.5829 29.492 85.3189 29.844C85.0629 30.196 84.8709 30.624 84.7429 31.128C84.6149 31.624 84.5509 32.188 84.5509 32.82C84.5509 33.476 84.6189 34.06 84.7549 34.572C84.8989 35.084 85.1029 35.516 85.3669 35.868C85.6309 36.212 85.9509 36.476 86.3269 36.66C86.7029 36.836 87.1269 36.924 87.5989 36.924C88.0709 36.924 88.4509 36.868 88.7389 36.756C89.0349 36.636 89.2829 36.508 89.4829 36.372C89.6829 36.228 89.8549 36.1 89.9989 35.988C90.1509 35.868 90.3189 35.808 90.5029 35.808C90.7429 35.808 90.9229 35.9 91.0429 36.084L91.8949 37.164C91.5669 37.548 91.2109 37.872 90.8269 38.136C90.4429 38.392 90.0429 38.6 89.6269 38.76C89.2189 38.912 88.7949 39.02 88.3549 39.084C87.9229 39.148 87.4909 39.18 87.0589 39.18C86.2989 39.18 85.5829 39.04 84.9109 38.76C84.2389 38.472 83.6509 38.056 83.1469 37.512C82.6429 36.968 82.2429 36.304 81.9469 35.52C81.6589 34.728 81.5149 33.828 81.5149 32.82C81.5149 31.916 81.6429 31.08 81.8989 30.312C82.1629 29.536 82.5469 28.868 83.0509 28.308C83.5549 27.74 84.1789 27.296 84.9229 26.976C85.6669 26.656 86.5229 26.496 87.4909 26.496C88.4109 26.496 89.2149 26.644 89.9029 26.94C90.5989 27.236 91.2229 27.66 91.7749 28.212L90.9949 29.292ZM100.257 33.744C99.4011 33.784 98.6811 33.86 98.0971 33.972C97.5131 34.076 97.0451 34.212 96.6931 34.38C96.3411 34.548 96.0891 34.744 95.9371 34.968C95.7851 35.192 95.7091 35.436 95.7091 35.7C95.7091 36.22 95.8611 36.592 96.1651 36.816C96.4771 37.04 96.8811 37.152 97.3771 37.152C97.9851 37.152 98.5091 37.044 98.9491 36.828C99.3971 36.604 99.8331 36.268 100.257 35.82V33.744ZM93.4651 28.404C94.8811 27.108 96.5851 26.46 98.5771 26.46C99.2971 26.46 99.9411 26.58 100.509 26.82C101.077 27.052 101.557 27.38 101.949 27.804C102.341 28.22 102.637 28.72 102.837 29.304C103.045 29.888 103.149 30.528 103.149 31.224V39H101.805C101.525 39 101.309 38.96 101.157 38.88C101.005 38.792 100.885 38.62 100.797 38.364L100.533 37.476C100.221 37.756 99.9171 38.004 99.6211 38.22C99.3251 38.428 99.0171 38.604 98.6971 38.748C98.3771 38.892 98.0331 39 97.6651 39.072C97.3051 39.152 96.9051 39.192 96.4651 39.192C95.9451 39.192 95.4651 39.124 95.0251 38.988C94.5851 38.844 94.2051 38.632 93.8851 38.352C93.5651 38.072 93.3171 37.724 93.1411 37.308C92.9651 36.892 92.8771 36.408 92.8771 35.856C92.8771 35.544 92.9291 35.236 93.0331 34.932C93.1371 34.62 93.3051 34.324 93.5371 34.044C93.7771 33.764 94.0851 33.5 94.4611 33.252C94.8371 33.004 95.2971 32.788 95.8411 32.604C96.3931 32.42 97.0331 32.272 97.7611 32.16C98.4891 32.04 99.3211 31.968 100.257 31.944V31.224C100.257 30.4 100.081 29.792 99.7291 29.4C99.3771 29 98.8691 28.8 98.2051 28.8C97.7251 28.8 97.3251 28.856 97.0051 28.968C96.6931 29.08 96.4171 29.208 96.1771 29.352C95.9371 29.488 95.7171 29.612 95.5171 29.724C95.3251 29.836 95.1091 29.892 94.8691 29.892C94.6611 29.892 94.4851 29.84 94.3411 29.736C94.1971 29.624 94.0811 29.496 93.9931 29.352L93.4651 28.404ZM113.669 29.832C113.333 29.424 112.965 29.136 112.565 28.968C112.173 28.8 111.749 28.716 111.293 28.716C110.845 28.716 110.441 28.8 110.081 28.968C109.721 29.136 109.413 29.392 109.157 29.736C108.901 30.072 108.705 30.504 108.569 31.032C108.433 31.552 108.365 32.168 108.365 32.88C108.365 33.6 108.421 34.212 108.533 34.716C108.653 35.212 108.821 35.62 109.037 35.94C109.253 36.252 109.517 36.48 109.829 36.624C110.141 36.76 110.489 36.828 110.873 36.828C111.489 36.828 112.013 36.7 112.445 36.444C112.877 36.188 113.285 35.824 113.669 35.352V29.832ZM116.633 21.168V39H114.821C114.429 39 114.181 38.82 114.077 38.46L113.825 37.272C113.329 37.84 112.757 38.3 112.109 38.652C111.469 39.004 110.721 39.18 109.865 39.18C109.193 39.18 108.577 39.04 108.017 38.76C107.457 38.48 106.973 38.076 106.565 37.548C106.165 37.012 105.853 36.352 105.629 35.568C105.413 34.784 105.305 33.888 105.305 32.88C105.305 31.968 105.429 31.12 105.677 30.336C105.925 29.552 106.281 28.872 106.745 28.296C107.209 27.72 107.765 27.272 108.413 26.952C109.061 26.624 109.789 26.46 110.597 26.46C111.285 26.46 111.873 26.568 112.361 26.784C112.849 27 113.285 27.292 113.669 27.66V21.168H116.633ZM127.49 31.428C127.49 31.044 127.434 30.684 127.322 30.348C127.218 30.004 127.058 29.704 126.842 29.448C126.626 29.192 126.35 28.992 126.014 28.848C125.686 28.696 125.302 28.62 124.862 28.62C124.006 28.62 123.33 28.864 122.834 29.352C122.346 29.84 122.034 30.532 121.898 31.428H127.49ZM121.838 33.216C121.886 33.848 121.998 34.396 122.174 34.86C122.35 35.316 122.582 35.696 122.87 36C123.158 36.296 123.498 36.52 123.89 36.672C124.29 36.816 124.73 36.888 125.21 36.888C125.69 36.888 126.102 36.832 126.446 36.72C126.798 36.608 127.102 36.484 127.358 36.348C127.622 36.212 127.85 36.088 128.042 35.976C128.242 35.864 128.434 35.808 128.618 35.808C128.866 35.808 129.05 35.9 129.17 36.084L130.022 37.164C129.694 37.548 129.326 37.872 128.918 38.136C128.51 38.392 128.082 38.6 127.634 38.76C127.194 38.912 126.742 39.02 126.278 39.084C125.822 39.148 125.378 39.18 124.946 39.18C124.09 39.18 123.294 39.04 122.558 38.76C121.822 38.472 121.182 38.052 120.638 37.5C120.094 36.94 119.666 36.252 119.354 35.436C119.042 34.612 118.886 33.66 118.886 32.58C118.886 31.74 119.022 30.952 119.294 30.216C119.566 29.472 119.954 28.828 120.458 28.284C120.97 27.732 121.59 27.296 122.318 26.976C123.054 26.656 123.882 26.496 124.802 26.496C125.578 26.496 126.294 26.62 126.95 26.868C127.606 27.116 128.17 27.48 128.642 27.96C129.114 28.432 129.482 29.016 129.746 29.712C130.018 30.4 130.154 31.188 130.154 32.076C130.154 32.524 130.106 32.828 130.01 32.988C129.914 33.14 129.73 33.216 129.458 33.216H121.838ZM132.378 39V26.688H134.19C134.574 26.688 134.826 26.868 134.946 27.228L135.138 28.14C135.354 27.9 135.578 27.68 135.81 27.48C136.05 27.28 136.302 27.108 136.566 26.964C136.838 26.82 137.126 26.708 137.43 26.628C137.742 26.54 138.082 26.496 138.45 26.496C139.226 26.496 139.862 26.708 140.358 27.132C140.862 27.548 141.238 28.104 141.486 28.8C141.678 28.392 141.918 28.044 142.206 27.756C142.494 27.46 142.81 27.22 143.154 27.036C143.498 26.852 143.862 26.716 144.246 26.628C144.638 26.54 145.03 26.496 145.422 26.496C146.102 26.496 146.706 26.6 147.234 26.808C147.762 27.016 148.206 27.32 148.566 27.72C148.926 28.12 149.198 28.608 149.382 29.184C149.574 29.76 149.67 30.42 149.67 31.164V39H146.706V31.164C146.706 30.38 146.534 29.792 146.19 29.4C145.846 29 145.342 28.8 144.678 28.8C144.374 28.8 144.09 28.852 143.826 28.956C143.57 29.06 143.342 29.212 143.142 29.412C142.95 29.604 142.798 29.848 142.686 30.144C142.574 30.44 142.518 30.78 142.518 31.164V39H139.542V31.164C139.542 30.34 139.374 29.74 139.038 29.364C138.71 28.988 138.226 28.8 137.586 28.8C137.154 28.8 136.75 28.908 136.374 29.124C136.006 29.332 135.662 29.62 135.342 29.988V39H132.378ZM155.559 26.688V39H152.583V26.688H155.559ZM155.967 23.1C155.967 23.356 155.915 23.596 155.811 23.82C155.707 24.044 155.567 24.24 155.391 24.408C155.223 24.576 155.023 24.712 154.791 24.816C154.559 24.912 154.311 24.96 154.047 24.96C153.791 24.96 153.547 24.912 153.315 24.816C153.091 24.712 152.895 24.576 152.727 24.408C152.559 24.24 152.423 24.044 152.319 23.82C152.223 23.596 152.175 23.356 152.175 23.1C152.175 22.836 152.223 22.588 152.319 22.356C152.423 22.124 152.559 21.924 152.727 21.756C152.895 21.588 153.091 21.456 153.315 21.36C153.547 21.256 153.791 21.204 154.047 21.204C154.311 21.204 154.559 21.256 154.791 21.36C155.023 21.456 155.223 21.588 155.391 21.756C155.567 21.924 155.707 22.124 155.811 22.356C155.915 22.588 155.967 22.836 155.967 23.1ZM165.085 33.744C164.229 33.784 163.509 33.86 162.925 33.972C162.341 34.076 161.873 34.212 161.521 34.38C161.169 34.548 160.917 34.744 160.765 34.968C160.613 35.192 160.537 35.436 160.537 35.7C160.537 36.22 160.689 36.592 160.993 36.816C161.305 37.04 161.709 37.152 162.205 37.152C162.813 37.152 163.337 37.044 163.777 36.828C164.225 36.604 164.661 36.268 165.085 35.82V33.744ZM158.293 28.404C159.709 27.108 161.413 26.46 163.405 26.46C164.125 26.46 164.769 26.58 165.337 26.82C165.905 27.052 166.385 27.38 166.777 27.804C167.169 28.22 167.465 28.72 167.665 29.304C167.873 29.888 167.977 30.528 167.977 31.224V39H166.633C166.353 39 166.137 38.96 165.985 38.88C165.833 38.792 165.713 38.62 165.625 38.364L165.361 37.476C165.049 37.756 164.745 38.004 164.449 38.22C164.153 38.428 163.845 38.604 163.525 38.748C163.205 38.892 162.861 39 162.493 39.072C162.133 39.152 161.733 39.192 161.293 39.192C160.773 39.192 160.293 39.124 159.853 38.988C159.413 38.844 159.033 38.632 158.713 38.352C158.393 38.072 158.145 37.724 157.969 37.308C157.793 36.892 157.705 36.408 157.705 35.856C157.705 35.544 157.757 35.236 157.861 34.932C157.965 34.62 158.133 34.324 158.365 34.044C158.605 33.764 158.913 33.5 159.289 33.252C159.665 33.004 160.125 32.788 160.669 32.604C161.221 32.42 161.861 32.272 162.589 32.16C163.317 32.04 164.149 31.968 165.085 31.944V31.224C165.085 30.4 164.909 29.792 164.557 29.4C164.205 29 163.697 28.8 163.033 28.8C162.553 28.8 162.153 28.856 161.833 28.968C161.521 29.08 161.245 29.208 161.005 29.352C160.765 29.488 160.545 29.612 160.345 29.724C160.153 29.836 159.937 29.892 159.697 29.892C159.489 29.892 159.313 29.84 159.169 29.736C159.025 29.624 158.909 29.496 158.821 29.352L158.293 28.404ZM193.621 30.324C193.621 31.596 193.409 32.776 192.985 33.864C192.569 34.944 191.977 35.88 191.209 36.672C190.441 37.464 189.517 38.084 188.437 38.532C187.357 38.972 186.157 39.192 184.837 39.192C183.525 39.192 182.329 38.972 181.249 38.532C180.169 38.084 179.241 37.464 178.465 36.672C177.697 35.88 177.101 34.944 176.677 33.864C176.253 32.776 176.041 31.596 176.041 30.324C176.041 29.052 176.253 27.876 176.677 26.796C177.101 25.708 177.697 24.768 178.465 23.976C179.241 23.184 180.169 22.568 181.249 22.128C182.329 21.68 183.525 21.456 184.837 21.456C185.717 21.456 186.545 21.56 187.321 21.768C188.097 21.968 188.809 22.256 189.457 22.632C190.105 23 190.685 23.452 191.197 23.988C191.717 24.516 192.157 25.108 192.517 25.764C192.877 26.42 193.149 27.132 193.333 27.9C193.525 28.668 193.621 29.476 193.621 30.324ZM190.321 30.324C190.321 29.372 190.193 28.52 189.937 27.768C189.681 27.008 189.317 26.364 188.845 25.836C188.373 25.308 187.797 24.904 187.117 24.624C186.445 24.344 185.685 24.204 184.837 24.204C183.989 24.204 183.225 24.344 182.545 24.624C181.873 24.904 181.297 25.308 180.817 25.836C180.345 26.364 179.981 27.008 179.725 27.768C179.469 28.52 179.341 29.372 179.341 30.324C179.341 31.276 179.469 32.132 179.725 32.892C179.981 33.644 180.345 34.284 180.817 34.812C181.297 35.332 181.873 35.732 182.545 36.012C183.225 36.292 183.989 36.432 184.837 36.432C185.685 36.432 186.445 36.292 187.117 36.012C187.797 35.732 188.373 35.332 188.845 34.812C189.317 34.284 189.681 33.644 189.937 32.892C190.193 32.132 190.321 31.276 190.321 30.324ZM215.271 21.648V39H212.427V27.792C212.427 27.344 212.451 26.86 212.499 26.34L207.255 36.192C207.007 36.664 206.627 36.9 206.115 36.9H205.659C205.147 36.9 204.767 36.664 204.519 36.192L199.215 26.304C199.239 26.568 199.259 26.828 199.275 27.084C199.291 27.34 199.299 27.576 199.299 27.792V39H196.455V21.648H198.891C199.035 21.648 199.159 21.652 199.263 21.66C199.367 21.668 199.459 21.688 199.539 21.72C199.627 21.752 199.703 21.804 199.767 21.876C199.839 21.948 199.907 22.044 199.971 22.164L205.167 31.8C205.303 32.056 205.427 32.32 205.539 32.592C205.659 32.864 205.775 33.144 205.887 33.432C205.999 33.136 206.115 32.852 206.235 32.58C206.355 32.3 206.483 32.032 206.619 31.776L211.743 22.164C211.807 22.044 211.875 21.948 211.947 21.876C212.019 21.804 212.095 21.752 212.175 21.72C212.263 21.688 212.359 21.668 212.463 21.66C212.567 21.652 212.691 21.648 212.835 21.648H215.271ZM233.447 30.3V37.32C232.567 37.968 231.627 38.444 230.627 38.748C229.635 39.044 228.571 39.192 227.435 39.192C226.019 39.192 224.735 38.972 223.583 38.532C222.439 38.092 221.459 37.48 220.643 36.696C219.835 35.912 219.211 34.976 218.771 33.888C218.331 32.8 218.111 31.612 218.111 30.324C218.111 29.02 218.323 27.824 218.747 26.736C219.171 25.648 219.771 24.712 220.547 23.928C221.331 23.144 222.279 22.536 223.391 22.104C224.503 21.672 225.751 21.456 227.135 21.456C227.839 21.456 228.495 21.512 229.103 21.624C229.719 21.736 230.287 21.892 230.807 22.092C231.335 22.284 231.815 22.52 232.247 22.8C232.679 23.08 233.075 23.388 233.435 23.724L232.511 25.188C232.367 25.42 232.179 25.564 231.947 25.62C231.715 25.668 231.463 25.608 231.191 25.44C230.927 25.288 230.663 25.136 230.399 24.984C230.135 24.832 229.839 24.7 229.511 24.588C229.191 24.476 228.827 24.384 228.419 24.312C228.019 24.24 227.555 24.204 227.027 24.204C226.171 24.204 225.395 24.348 224.699 24.636C224.011 24.924 223.423 25.336 222.935 25.872C222.447 26.408 222.071 27.052 221.807 27.804C221.543 28.556 221.411 29.396 221.411 30.324C221.411 31.316 221.551 32.204 221.831 32.988C222.119 33.764 222.519 34.424 223.031 34.968C223.551 35.504 224.175 35.916 224.903 36.204C225.631 36.484 226.443 36.624 227.339 36.624C227.979 36.624 228.551 36.556 229.055 36.42C229.559 36.284 230.051 36.1 230.531 35.868V32.724H228.347C228.139 32.724 227.975 32.668 227.855 32.556C227.743 32.436 227.687 32.292 227.687 32.124V30.3H233.447Z" fill="#003768"/>
<ellipse cx="25.0097" cy="29.1977" rx="18.6135" ry="18.428" fill="#003768"/>
<ellipse cx="25.0097" cy="29.1977" rx="18.6135" ry="18.428" fill="url(#paint0_radial_26069_1039)" fill-opacity="0.5"/>
<ellipse cx="25.0097" cy="29.1977" rx="18.6135" ry="18.428" fill="url(#paint1_linear_26069_1039)" fill-opacity="0.2"/>
<path d="M11.277 32.6913L15.0736 20.4311C19.3914 20.076 21.3891 20.8836 24.2275 24.1005H25.7462C28.4731 20.9797 30.4596 20.1601 34.858 20.3879L38.9076 32.8208C32.0929 32.5979 28.4038 33.2093 25.0712 37.2241H24.7337C20.3634 32.6236 17.014 32.6913 11.277 32.6913Z" fill="#F0F1F3"/>
<path d="M25.8268 24.3412L25.0378 35.397L24.1925 24.3412C20.9802 20.5634 15.2882 20.7856 15.2882 20.7856L11.5686 32.4525C20.0897 31.0302 23.9483 34.7488 24.8124 36.7859C18.5568 31.1192 9.53979 34.5636 9.53979 34.5636L14.4428 19.9522C20.4166 19.1744 25.0378 23.6189 25.0378 23.6189C29.9972 19.0077 35.5765 19.9522 35.5765 19.9522L40.4795 34.5636C30.0535 31.2858 25.0378 36.7859 25.0378 36.7859C29.7718 30.1746 38.5634 32.4525 38.5634 32.4525L34.6748 20.8411C29.3209 20.3411 25.8268 24.3412 25.8268 24.3412Z" fill="#89CE26"/>
<path d="M23.2908 38.4527H26.7285C26.954 38.4527 27.1231 38.1193 27.1231 38.1193V37.5638C31.4625 33.897 40.4795 35.6193 40.4795 35.6193C30.3918 32.3414 24.9252 37.4617 24.9252 37.4617C19.0542 32.2193 9.53979 35.6748 9.53979 35.6748C18.7259 33.897 22.8963 37.5638 22.8963 37.5638L22.9527 38.1193C22.9527 38.3415 23.2908 38.4527 23.2908 38.4527Z" fill="#89CE26"/>
<path d="M26.7285 31.897C26.7285 31.897 30.0536 28.0635 36.8727 28.3413M25.0378 37.5638C25.0004 37.5294 24.9629 37.4954 24.9252 37.4617M24.9252 37.4617C19.0543 32.2193 9.53979 35.6748 9.53979 35.6748C18.7259 33.897 22.8963 37.5638 22.8963 37.5638L22.9527 38.1193C22.9527 38.3415 23.2908 38.4527 23.2908 38.4527C23.2908 38.4527 26.5031 38.4527 26.7285 38.4527C26.954 38.4527 27.1231 38.1193 27.1231 38.1193V37.5638C31.4625 33.897 40.4795 35.6193 40.4795 35.6193C30.3918 32.3414 24.9252 37.4617 24.9252 37.4617ZM26.7285 30.1191C26.7285 30.1191 29.3774 26.6746 36.3092 26.8413M26.7285 28.3413C26.7285 28.3413 29.7718 25.0635 35.802 25.2857M26.7285 26.6746C26.7285 26.6746 29.1519 23.6189 35.2948 23.7857M26.7285 24.9524C26.7285 24.9524 30.11 21.7856 34.6748 22.2301M23.2908 24.9524C23.2908 24.9524 20.8112 22.0634 15.2882 22.2301M14.781 23.7857C14.781 23.7857 19.9658 23.2857 23.2908 26.6746M23.2908 28.4524C23.2908 28.4524 20.5294 24.9524 14.3302 25.2857M13.8229 26.8413C13.8229 26.8413 19.9095 26.3968 23.2908 30.1191M23.2908 31.897C23.2908 31.897 19.8531 28.0635 13.203 28.3413M25.0378 35.397L25.8268 24.3412C25.8268 24.3412 29.3209 20.3411 34.6748 20.8411L38.5634 32.4525C38.5634 32.4525 29.7718 30.1746 25.0378 36.7859C25.0378 36.7859 30.0535 31.2858 40.4795 34.5636L35.5765 19.9522C35.5765 19.9522 29.9972 19.0077 25.0378 23.6189C25.0378 23.6189 20.4166 19.1744 14.4428 19.9522L9.53979 34.5636C9.53979 34.5636 18.5568 31.1192 24.8124 36.7859C23.9483 34.7488 20.0897 31.0302 11.5686 32.4525L15.2882 20.7856C15.2882 20.7856 20.9802 20.5634 24.1925 24.3412L25.0378 35.397Z" stroke="#C4C4C4" stroke-width="0.25"/>
<path d="M32.196 18.3443C32.196 18.3443 38.1571 17.9612 38.3898 17.9339C38.6224 17.9065 38.855 17.6603 38.855 17.6603L41.8792 12.8173C42.3408 12.9811 47.9662 19.6029 47.9662 19.6029C46.8494 19.4923 42.1991 20.5059 42.1991 20.5059L41.4721 21.1625C40.4253 22.8863 39.3203 25.2394 39.3203 25.2394L37.8373 28.7417C36.7614 29.7267 36.8777 28.3039 36.8777 28.3039L37.8373 25.7319C37.8954 25.0205 37.2848 25.3489 37.2848 25.3489L34.4351 29.07C33.2429 29.5625 33.5337 28.4134 33.5337 28.4134L36.0635 24.9384C36.2089 24.4186 35.6564 24.6101 35.6564 24.6101L32.196 28.1124C30.8294 28.4681 31.3818 27.2368 31.3818 27.2368L34.6677 23.7345C34.8713 23.3241 34.4351 23.4609 34.4351 23.4609L30.684 25.8961C29.4627 26.0603 30.0152 25.0205 30.0152 25.0205L32.7485 23.0505C34.4933 21.8192 35.2202 20.5606 35.2202 20.5606C35.5982 19.8218 35.0167 19.6029 35.0167 19.6029L32.8358 19.5482C31.44 19.1925 32.196 18.3443 32.196 18.3443Z" fill="#FFDDC8"/>
<path d="M18.0302 38.7357C18.0302 38.7357 12.0691 39.1188 11.8364 39.1461C11.6038 39.1735 11.3712 39.4198 11.3712 39.4198L8.34701 44.2628C7.88535 44.099 2.25995 37.4771 2.25995 37.4771C3.37676 37.5877 8.02714 36.5742 8.02714 36.5742L8.75411 35.9175C9.80093 34.1937 10.9059 31.8406 10.9059 31.8406L12.3889 28.3383C13.4648 27.3533 13.3485 28.7761 13.3485 28.7761L12.3889 31.3481C12.3308 32.0595 12.9414 31.7312 12.9414 31.7312L15.7911 28.01C16.9833 27.5175 16.6925 28.6667 16.6925 28.6667L14.1627 32.1416C14.0173 32.6615 14.5698 32.4699 14.5698 32.4699L18.0302 28.9676C19.3968 28.6119 18.8444 29.8432 18.8444 29.8432L15.5585 33.3455C15.3549 33.7559 15.7911 33.6191 15.7911 33.6191L19.5422 31.1839C20.7635 31.0198 20.211 32.0595 20.211 32.0595L17.4777 34.0295C15.7329 35.2608 15.006 36.5194 15.006 36.5194C14.628 37.2582 15.2095 37.4771 15.2095 37.4771L17.3904 37.5318C18.7862 37.8875 18.0302 38.7357 18.0302 38.7357Z" fill="#AC7F5F"/>
<path d="M38.815 39.0158L46.33 37.0654L45.9429 44.9094L43.5669 42.9449C38.9261 49.9149 35.7478 52.3043 29.0849 53.9655L26.6834 49.3417C36.1122 48.1537 41.191 40.9803 41.191 40.9803L38.815 39.0158Z" fill="#89CE26"/>
<path d="M11.1473 19.3039L3.57661 21.0305L4.20079 13.2015L6.51629 15.2356C11.366 8.40636 14.6151 6.11227 21.3253 4.64948L23.5857 9.34238C14.1253 10.2503 8.83177 17.2698 8.83177 17.2698L11.1473 19.3039Z" fill="#F0F1F3"/>
<defs>
<radialGradient id="paint0_radial_26069_1039" cx="0" cy="0" r="1" gradientUnits="userSpaceOnUse" gradientTransform="translate(25.0097 29.1977) rotate(90) scale(18.428 18.6135)">
<stop stop-color="#FEFEFE"/>
<stop offset="1" stop-color="#FEFEFE" stop-opacity="0"/>
</radialGradient>
<linearGradient id="paint1_linear_26069_1039" x1="25.0097" y1="10.7697" x2="25.0097" y2="47.6257" gradientUnits="userSpaceOnUse">
<stop stop-color="#F0F1F3"/>
<stop offset="1" stop-opacity="0"/>
</linearGradient>
</defs>
</svg>
