<svg width="50" height="59" viewBox="0 0 50 59" fill="none" xmlns="http://www.w3.org/2000/svg">
<ellipse cx="25.0097" cy="29.1977" rx="18.6135" ry="18.428" fill="#003768"/>
<ellipse cx="25.0097" cy="29.1977" rx="18.6135" ry="18.428" fill="url(#paint0_radial_25864:903)" fill-opacity="0.5"/>
<ellipse cx="25.0097" cy="29.1977" rx="18.6135" ry="18.428" fill="url(#paint1_linear_25864:903)" fill-opacity="0.2"/>
<path d="M11.277 32.6913L15.0736 20.4311C19.3914 20.076 21.3891 20.8836 24.2275 24.1005H25.7462C28.4731 20.9797 30.4596 20.1601 34.858 20.3879L38.9076 32.8208C32.0929 32.5979 28.4038 33.2093 25.0712 37.2241H24.7337C20.3634 32.6236 17.014 32.6913 11.277 32.6913Z" fill="#F0F1F3"/>
<path d="M25.8268 24.3412L25.0378 35.397L24.1925 24.3412C20.9802 20.5634 15.2882 20.7856 15.2882 20.7856L11.5686 32.4525C20.0897 31.0302 23.9483 34.7488 24.8124 36.7859C18.5568 31.1192 9.53979 34.5636 9.53979 34.5636L14.4428 19.9522C20.4166 19.1744 25.0378 23.6189 25.0378 23.6189C29.9972 19.0077 35.5765 19.9522 35.5765 19.9522L40.4795 34.5636C30.0535 31.2858 25.0378 36.7859 25.0378 36.7859C29.7718 30.1746 38.5634 32.4525 38.5634 32.4525L34.6748 20.8411C29.3209 20.3411 25.8268 24.3412 25.8268 24.3412Z" fill="#89CE26"/>
<path d="M23.2908 38.4527H26.7285C26.954 38.4527 27.1231 38.1193 27.1231 38.1193V37.5638C31.4625 33.897 40.4795 35.6193 40.4795 35.6193C30.3918 32.3414 24.9252 37.4617 24.9252 37.4617C19.0542 32.2193 9.53979 35.6748 9.53979 35.6748C18.7259 33.897 22.8963 37.5638 22.8963 37.5638L22.9527 38.1193C22.9527 38.3415 23.2908 38.4527 23.2908 38.4527Z" fill="#89CE26"/>
<path d="M26.7285 31.897C26.7285 31.897 30.0536 28.0635 36.8727 28.3413M25.0378 37.5638C25.0004 37.5294 24.9629 37.4954 24.9252 37.4617M24.9252 37.4617C19.0543 32.2193 9.53979 35.6748 9.53979 35.6748C18.7259 33.897 22.8963 37.5638 22.8963 37.5638L22.9527 38.1193C22.9527 38.3415 23.2908 38.4527 23.2908 38.4527C23.2908 38.4527 26.5031 38.4527 26.7285 38.4527C26.954 38.4527 27.1231 38.1193 27.1231 38.1193V37.5638C31.4625 33.897 40.4795 35.6193 40.4795 35.6193C30.3918 32.3414 24.9252 37.4617 24.9252 37.4617ZM26.7285 30.1191C26.7285 30.1191 29.3774 26.6746 36.3092 26.8413M26.7285 28.3413C26.7285 28.3413 29.7718 25.0635 35.802 25.2857M26.7285 26.6746C26.7285 26.6746 29.1519 23.6189 35.2948 23.7857M26.7285 24.9524C26.7285 24.9524 30.11 21.7856 34.6748 22.2301M23.2908 24.9524C23.2908 24.9524 20.8112 22.0634 15.2882 22.2301M14.781 23.7857C14.781 23.7857 19.9658 23.2857 23.2908 26.6746M23.2908 28.4524C23.2908 28.4524 20.5294 24.9524 14.3302 25.2857M13.8229 26.8413C13.8229 26.8413 19.9095 26.3968 23.2908 30.1191M23.2908 31.897C23.2908 31.897 19.8531 28.0635 13.203 28.3413M25.0378 35.397L25.8268 24.3412C25.8268 24.3412 29.3209 20.3411 34.6748 20.8411L38.5634 32.4525C38.5634 32.4525 29.7718 30.1746 25.0378 36.7859C25.0378 36.7859 30.0535 31.2858 40.4795 34.5636L35.5765 19.9522C35.5765 19.9522 29.9972 19.0077 25.0378 23.6189C25.0378 23.6189 20.4166 19.1744 14.4428 19.9522L9.53979 34.5636C9.53979 34.5636 18.5568 31.1192 24.8124 36.7859C23.9483 34.7488 20.0897 31.0302 11.5686 32.4525L15.2882 20.7856C15.2882 20.7856 20.9802 20.5634 24.1925 24.3412L25.0378 35.397Z" stroke="#C4C4C4" stroke-width="0.25"/>
<path d="M32.196 18.3443C32.196 18.3443 38.1571 17.9612 38.3898 17.9339C38.6224 17.9065 38.855 17.6603 38.855 17.6603L41.8792 12.8173C42.3408 12.9811 47.9662 19.6029 47.9662 19.6029C46.8494 19.4923 42.1991 20.5059 42.1991 20.5059L41.4721 21.1625C40.4253 22.8863 39.3203 25.2394 39.3203 25.2394L37.8373 28.7417C36.7614 29.7267 36.8777 28.3039 36.8777 28.3039L37.8373 25.7319C37.8954 25.0205 37.2848 25.3489 37.2848 25.3489L34.4351 29.07C33.2429 29.5625 33.5337 28.4134 33.5337 28.4134L36.0635 24.9384C36.2089 24.4186 35.6564 24.6101 35.6564 24.6101L32.196 28.1124C30.8294 28.4681 31.3818 27.2368 31.3818 27.2368L34.6677 23.7345C34.8713 23.3241 34.4351 23.4609 34.4351 23.4609L30.684 25.8961C29.4627 26.0603 30.0152 25.0205 30.0152 25.0205L32.7485 23.0505C34.4933 21.8192 35.2202 20.5606 35.2202 20.5606C35.5982 19.8218 35.0167 19.6029 35.0167 19.6029L32.8358 19.5482C31.44 19.1925 32.196 18.3443 32.196 18.3443Z" fill="#FFDDC8"/>
<path d="M18.0302 38.7357C18.0302 38.7357 12.0691 39.1188 11.8364 39.1461C11.6038 39.1735 11.3712 39.4198 11.3712 39.4198L8.34701 44.2628C7.88535 44.099 2.25995 37.4771 2.25995 37.4771C3.37676 37.5877 8.02714 36.5742 8.02714 36.5742L8.75411 35.9175C9.80093 34.1937 10.9059 31.8406 10.9059 31.8406L12.3889 28.3383C13.4648 27.3533 13.3485 28.7761 13.3485 28.7761L12.3889 31.3481C12.3308 32.0595 12.9414 31.7312 12.9414 31.7312L15.7911 28.01C16.9833 27.5175 16.6925 28.6667 16.6925 28.6667L14.1627 32.1416C14.0173 32.6615 14.5698 32.4699 14.5698 32.4699L18.0302 28.9676C19.3968 28.6119 18.8444 29.8432 18.8444 29.8432L15.5585 33.3455C15.3549 33.7559 15.7911 33.6191 15.7911 33.6191L19.5422 31.1839C20.7635 31.0198 20.211 32.0595 20.211 32.0595L17.4777 34.0295C15.7329 35.2608 15.006 36.5194 15.006 36.5194C14.628 37.2582 15.2095 37.4771 15.2095 37.4771L17.3904 37.5318C18.7862 37.8875 18.0302 38.7357 18.0302 38.7357Z" fill="#AC7F5F"/>
<path d="M38.815 39.0158L46.33 37.0654L45.9429 44.9094L43.5669 42.9449C38.9261 49.9149 35.7478 52.3043 29.0849 53.9655L26.6834 49.3417C36.1122 48.1537 41.191 40.9803 41.191 40.9803L38.815 39.0158Z" fill="#89CE26"/>
<path d="M11.1473 19.3039L3.57661 21.0305L4.20079 13.2015L6.51629 15.2356C11.366 8.40636 14.6151 6.11227 21.3253 4.64948L23.5857 9.34238C14.1253 10.2503 8.83177 17.2698 8.83177 17.2698L11.1473 19.3039Z" fill="#F0F1F3"/>
<defs>
<radialGradient id="paint0_radial_25864:903" cx="0" cy="0" r="1" gradientUnits="userSpaceOnUse" gradientTransform="translate(25.0097 29.1977) rotate(90) scale(18.428 18.6135)">
<stop stop-color="#FEFEFE"/>
<stop offset="1" stop-color="#FEFEFE" stop-opacity="0"/>
</radialGradient>
<linearGradient id="paint1_linear_25864:903" x1="25.0097" y1="10.7697" x2="25.0097" y2="47.6257" gradientUnits="userSpaceOnUse">
<stop stop-color="#F0F1F3"/>
<stop offset="1" stop-opacity="0"/>
</linearGradient>
</defs>
</svg>
