<svg width="252" height="59" viewBox="0 0 252 59" fill="none" xmlns="http://www.w3.org/2000/svg">
<ellipse cx="25.01" cy="29.1978" rx="18.6135" ry="18.428" fill="#003768"/>
<ellipse cx="25.01" cy="29.1978" rx="18.6135" ry="18.428" fill="url(#paint0_radial_26070_1185)" fill-opacity="0.5"/>
<ellipse cx="25.01" cy="29.1978" rx="18.6135" ry="18.428" fill="url(#paint1_linear_26070_1185)" fill-opacity="0.2"/>
<path d="M11.2773 32.6913L15.0739 20.4311C19.3917 20.076 21.3895 20.8837 24.2279 24.1006H25.7465C28.4735 20.9798 30.4599 20.1602 34.8583 20.388L38.908 32.8209C32.0933 32.598 28.4041 33.2094 25.0716 37.2242H24.7341C20.3638 32.6236 17.0144 32.6913 11.2773 32.6913Z" fill="#F0F1F3"/>
<path d="M25.8271 24.3412L25.0381 35.397L24.1927 24.3412C20.9804 20.5634 15.2884 20.7856 15.2884 20.7856L11.5689 32.4525C20.09 31.0302 23.9485 34.7488 24.8127 36.7859C18.5571 31.1192 9.54004 34.5636 9.54004 34.5636L14.443 19.9522C20.4168 19.1744 25.0381 23.6189 25.0381 23.6189C29.9974 19.0077 35.5767 19.9522 35.5767 19.9522L40.4798 34.5636C30.0538 31.2858 25.0381 36.7859 25.0381 36.7859C29.772 30.1746 38.5636 32.4525 38.5636 32.4525L34.675 20.8411C29.3212 20.3411 25.8271 24.3412 25.8271 24.3412Z" fill="#89CE26"/>
<path d="M23.291 38.4527H26.7288C26.9543 38.4527 27.1233 38.1193 27.1233 38.1193V37.5638C31.4628 33.897 40.4798 35.6193 40.4798 35.6193C30.392 32.3414 24.9254 37.4617 24.9254 37.4617C19.0545 32.2193 9.54004 35.6748 9.54004 35.6748C18.7262 33.897 22.8965 37.5638 22.8965 37.5638L22.9529 38.1193C22.9529 38.3415 23.291 38.4527 23.291 38.4527Z" fill="#89CE26"/>
<path d="M26.7288 31.897C26.7288 31.897 30.0538 28.0635 36.873 28.3413M25.0381 37.5638C25.0007 37.5294 24.9631 37.4954 24.9254 37.4617M24.9254 37.4617C19.0545 32.2193 9.54004 35.6748 9.54004 35.6748C18.7262 33.897 22.8965 37.5638 22.8965 37.5638L22.9529 38.1193C22.9529 38.3415 23.291 38.4527 23.291 38.4527C23.291 38.4527 26.5033 38.4527 26.7288 38.4527C26.9543 38.4527 27.1233 38.1193 27.1233 38.1193V37.5638C31.4628 33.897 40.4798 35.6193 40.4798 35.6193C30.392 32.3414 24.9254 37.4617 24.9254 37.4617ZM26.7288 30.1191C26.7288 30.1191 29.3776 26.6746 36.3095 26.8413M26.7288 28.3413C26.7288 28.3413 29.7721 25.0635 35.8022 25.2857M26.7288 26.6746C26.7288 26.6746 29.1522 23.6189 35.295 23.7857M26.7288 24.9524C26.7288 24.9524 30.1102 21.7856 34.675 22.2301M23.2911 24.9524C23.2911 24.9524 20.8114 22.0634 15.2884 22.2301M14.7813 23.7857C14.7813 23.7857 19.9661 23.2857 23.2911 26.6746M23.2911 28.4524C23.2911 28.4524 20.5296 24.9524 14.3304 25.2857M13.8232 26.8413C13.8232 26.8413 19.9097 26.3968 23.2911 30.1191M23.2911 31.897C23.2911 31.897 19.8533 28.0635 13.2033 28.3413M25.0381 35.397L25.8271 24.3412C25.8271 24.3412 29.3212 20.3411 34.675 20.8411L38.5636 32.4525C38.5636 32.4525 29.772 30.1746 25.0381 36.7859C25.0381 36.7859 30.0538 31.2858 40.4798 34.5636L35.5767 19.9522C35.5767 19.9522 29.9974 19.0077 25.0381 23.6189C25.0381 23.6189 20.4168 19.1744 14.443 19.9522L9.54004 34.5636C9.54004 34.5636 18.5571 31.1192 24.8127 36.7859C23.9485 34.7488 20.09 31.0302 11.5689 32.4525L15.2884 20.7856C15.2884 20.7856 20.9804 20.5634 24.1927 24.3412L25.0381 35.397Z" stroke="#C4C4C4" stroke-width="0.25"/>
<path d="M32.1962 18.3443C32.1962 18.3443 38.1573 17.9612 38.3899 17.9339C38.6225 17.9065 38.8551 17.6603 38.8551 17.6603L41.8793 12.8173C42.341 12.9811 47.9664 19.6029 47.9664 19.6029C46.8496 19.4923 42.1992 20.5059 42.1992 20.5059L41.4722 21.1625C40.4254 22.8863 39.3204 25.2394 39.3204 25.2394L37.8374 28.7417C36.7615 29.7267 36.8778 28.3039 36.8778 28.3039L37.8374 25.7319C37.8956 25.0205 37.2849 25.3489 37.2849 25.3489L34.4352 29.07C33.243 29.5625 33.5338 28.4134 33.5338 28.4134L36.0636 24.9384C36.209 24.4186 35.6565 24.6101 35.6565 24.6101L32.1962 28.1124C30.8295 28.4681 31.382 27.2368 31.382 27.2368L34.6678 23.7345C34.8714 23.3241 34.4352 23.4609 34.4352 23.4609L30.6841 25.8961C29.4628 26.0603 30.0153 25.0205 30.0153 25.0205L32.7487 23.0505C34.4934 21.8192 35.2203 20.5606 35.2203 20.5606C35.5984 19.8218 35.0168 19.6029 35.0168 19.6029L32.8359 19.5482C31.4401 19.1925 32.1962 18.3443 32.1962 18.3443Z" fill="#FFDDC8"/>
<path d="M18.0299 38.7357C18.0299 38.7357 12.0688 39.1187 11.8362 39.1461C11.6036 39.1734 11.3709 39.4197 11.3709 39.4197L8.34676 44.2627C7.88511 44.0989 2.2597 37.477 2.2597 37.477C3.37651 37.5877 8.0269 36.5741 8.0269 36.5741L8.75386 35.9174C9.80069 34.1936 10.9057 31.8405 10.9057 31.8405L12.3887 28.3383C13.4646 27.3532 13.3483 28.776 13.3483 28.776L12.3887 31.348C12.3305 32.0594 12.9412 31.7311 12.9412 31.7311L15.7909 28.0099C16.9831 27.5174 16.6923 28.6666 16.6923 28.6666L14.1625 32.1415C14.0171 32.6614 14.5696 32.4699 14.5696 32.4699L18.0299 28.9676C19.3966 28.6119 18.8441 29.8432 18.8441 29.8432L15.5582 33.3454C15.3547 33.7559 15.7909 33.619 15.7909 33.619L19.542 31.1839C20.7633 31.0197 20.2108 32.0594 20.2108 32.0594L17.4774 34.0295C15.7327 35.2607 15.0057 36.5194 15.0057 36.5194C14.6277 37.2581 15.2093 37.477 15.2093 37.477L17.3902 37.5318C18.786 37.8875 18.0299 38.7357 18.0299 38.7357Z" fill="#AC7F5F"/>
<path d="M38.8147 39.0158L46.3297 37.0654L45.9427 44.9094L43.5667 42.9449C38.9258 49.9149 35.7476 52.3043 29.0847 53.9655L26.6832 49.3417C36.1119 48.1537 41.1907 40.9803 41.1907 40.9803L38.8147 39.0158Z" fill="#89CE26"/>
<path d="M11.1474 19.3039L3.57673 21.0305L4.20092 13.2015L6.51641 15.2356C11.3661 8.40636 14.6152 6.11227 21.3254 4.64948L23.5859 9.34238C14.1254 10.2503 8.83189 17.2698 8.83189 17.2698L11.1474 19.3039Z" fill="#F0F1F3"/>
<path d="M77.475 25.448L75.363 19.676C75.259 19.42 75.151 19.116 75.039 18.764C74.927 18.412 74.815 18.032 74.703 17.624C74.599 18.032 74.491 18.416 74.379 18.776C74.267 19.128 74.159 19.436 74.055 19.7L71.955 25.448H77.475ZM83.175 32H80.679C80.399 32 80.171 31.932 79.995 31.796C79.819 31.652 79.687 31.476 79.599 31.268L78.303 27.728H71.115L69.819 31.268C69.755 31.452 69.631 31.62 69.447 31.772C69.263 31.924 69.035 32 68.763 32H66.243L73.071 14.648H76.359L83.175 32ZM92.9949 22.292C92.9069 22.404 92.8189 22.492 92.7309 22.556C92.6509 22.62 92.5309 22.652 92.3709 22.652C92.2189 22.652 92.0709 22.608 91.9269 22.52C91.7829 22.424 91.6109 22.32 91.4109 22.208C91.2109 22.088 90.9709 21.984 90.6909 21.896C90.4189 21.8 90.0789 21.752 89.6709 21.752C89.1509 21.752 88.6949 21.848 88.3029 22.04C87.9109 22.224 87.5829 22.492 87.3189 22.844C87.0629 23.196 86.8709 23.624 86.7429 24.128C86.6149 24.624 86.5509 25.188 86.5509 25.82C86.5509 26.476 86.6189 27.06 86.7549 27.572C86.8989 28.084 87.1029 28.516 87.3669 28.868C87.6309 29.212 87.9509 29.476 88.3269 29.66C88.7029 29.836 89.1269 29.924 89.5989 29.924C90.0709 29.924 90.4509 29.868 90.7389 29.756C91.0349 29.636 91.2829 29.508 91.4829 29.372C91.6829 29.228 91.8549 29.1 91.9989 28.988C92.1509 28.868 92.3189 28.808 92.5029 28.808C92.7429 28.808 92.9229 28.9 93.0429 29.084L93.8949 30.164C93.5669 30.548 93.2109 30.872 92.8269 31.136C92.4429 31.392 92.0429 31.6 91.6269 31.76C91.2189 31.912 90.7949 32.02 90.3549 32.084C89.9229 32.148 89.4909 32.18 89.0589 32.18C88.2989 32.18 87.5829 32.04 86.9109 31.76C86.2389 31.472 85.6509 31.056 85.1469 30.512C84.6429 29.968 84.2429 29.304 83.9469 28.52C83.6589 27.728 83.5149 26.828 83.5149 25.82C83.5149 24.916 83.6429 24.08 83.8989 23.312C84.1629 22.536 84.5469 21.868 85.0509 21.308C85.5549 20.74 86.1789 20.296 86.9229 19.976C87.6669 19.656 88.5229 19.496 89.4909 19.496C90.4109 19.496 91.2149 19.644 91.9029 19.94C92.5989 20.236 93.2229 20.66 93.7749 21.212L92.9949 22.292ZM102.257 26.744C101.401 26.784 100.681 26.86 100.097 26.972C99.5131 27.076 99.0451 27.212 98.6931 27.38C98.3411 27.548 98.0891 27.744 97.9371 27.968C97.7851 28.192 97.7091 28.436 97.7091 28.7C97.7091 29.22 97.8611 29.592 98.1651 29.816C98.4771 30.04 98.8811 30.152 99.3771 30.152C99.9851 30.152 100.509 30.044 100.949 29.828C101.397 29.604 101.833 29.268 102.257 28.82V26.744ZM95.4651 21.404C96.8811 20.108 98.5851 19.46 100.577 19.46C101.297 19.46 101.941 19.58 102.509 19.82C103.077 20.052 103.557 20.38 103.949 20.804C104.341 21.22 104.637 21.72 104.837 22.304C105.045 22.888 105.149 23.528 105.149 24.224V32H103.805C103.525 32 103.309 31.96 103.157 31.88C103.005 31.792 102.885 31.62 102.797 31.364L102.533 30.476C102.221 30.756 101.917 31.004 101.621 31.22C101.325 31.428 101.017 31.604 100.697 31.748C100.377 31.892 100.033 32 99.6651 32.072C99.3051 32.152 98.9051 32.192 98.4651 32.192C97.9451 32.192 97.4651 32.124 97.0251 31.988C96.5851 31.844 96.2051 31.632 95.8851 31.352C95.5651 31.072 95.3171 30.724 95.1411 30.308C94.9651 29.892 94.8771 29.408 94.8771 28.856C94.8771 28.544 94.9291 28.236 95.0331 27.932C95.1371 27.62 95.3051 27.324 95.5371 27.044C95.7771 26.764 96.0851 26.5 96.4611 26.252C96.8371 26.004 97.2971 25.788 97.8411 25.604C98.3931 25.42 99.0331 25.272 99.7611 25.16C100.489 25.04 101.321 24.968 102.257 24.944V24.224C102.257 23.4 102.081 22.792 101.729 22.4C101.377 22 100.869 21.8 100.205 21.8C99.7251 21.8 99.3251 21.856 99.0051 21.968C98.6931 22.08 98.4171 22.208 98.1771 22.352C97.9371 22.488 97.7171 22.612 97.5171 22.724C97.3251 22.836 97.1091 22.892 96.8691 22.892C96.6611 22.892 96.4851 22.84 96.3411 22.736C96.1971 22.624 96.0811 22.496 95.9931 22.352L95.4651 21.404ZM115.669 22.832C115.333 22.424 114.965 22.136 114.565 21.968C114.173 21.8 113.749 21.716 113.293 21.716C112.845 21.716 112.441 21.8 112.081 21.968C111.721 22.136 111.413 22.392 111.157 22.736C110.901 23.072 110.705 23.504 110.569 24.032C110.433 24.552 110.365 25.168 110.365 25.88C110.365 26.6 110.421 27.212 110.533 27.716C110.653 28.212 110.821 28.62 111.037 28.94C111.253 29.252 111.517 29.48 111.829 29.624C112.141 29.76 112.489 29.828 112.873 29.828C113.489 29.828 114.013 29.7 114.445 29.444C114.877 29.188 115.285 28.824 115.669 28.352V22.832ZM118.633 14.168V32H116.821C116.429 32 116.181 31.82 116.077 31.46L115.825 30.272C115.329 30.84 114.757 31.3 114.109 31.652C113.469 32.004 112.721 32.18 111.865 32.18C111.193 32.18 110.577 32.04 110.017 31.76C109.457 31.48 108.973 31.076 108.565 30.548C108.165 30.012 107.853 29.352 107.629 28.568C107.413 27.784 107.305 26.888 107.305 25.88C107.305 24.968 107.429 24.12 107.677 23.336C107.925 22.552 108.281 21.872 108.745 21.296C109.209 20.72 109.765 20.272 110.413 19.952C111.061 19.624 111.789 19.46 112.597 19.46C113.285 19.46 113.873 19.568 114.361 19.784C114.849 20 115.285 20.292 115.669 20.66V14.168H118.633ZM129.49 24.428C129.49 24.044 129.434 23.684 129.322 23.348C129.218 23.004 129.058 22.704 128.842 22.448C128.626 22.192 128.35 21.992 128.014 21.848C127.686 21.696 127.302 21.62 126.862 21.62C126.006 21.62 125.33 21.864 124.834 22.352C124.346 22.84 124.034 23.532 123.898 24.428H129.49ZM123.838 26.216C123.886 26.848 123.998 27.396 124.174 27.86C124.35 28.316 124.582 28.696 124.87 29C125.158 29.296 125.498 29.52 125.89 29.672C126.29 29.816 126.73 29.888 127.21 29.888C127.69 29.888 128.102 29.832 128.446 29.72C128.798 29.608 129.102 29.484 129.358 29.348C129.622 29.212 129.85 29.088 130.042 28.976C130.242 28.864 130.434 28.808 130.618 28.808C130.866 28.808 131.05 28.9 131.17 29.084L132.022 30.164C131.694 30.548 131.326 30.872 130.918 31.136C130.51 31.392 130.082 31.6 129.634 31.76C129.194 31.912 128.742 32.02 128.278 32.084C127.822 32.148 127.378 32.18 126.946 32.18C126.09 32.18 125.294 32.04 124.558 31.76C123.822 31.472 123.182 31.052 122.638 30.5C122.094 29.94 121.666 29.252 121.354 28.436C121.042 27.612 120.886 26.66 120.886 25.58C120.886 24.74 121.022 23.952 121.294 23.216C121.566 22.472 121.954 21.828 122.458 21.284C122.97 20.732 123.59 20.296 124.318 19.976C125.054 19.656 125.882 19.496 126.802 19.496C127.578 19.496 128.294 19.62 128.95 19.868C129.606 20.116 130.17 20.48 130.642 20.96C131.114 21.432 131.482 22.016 131.746 22.712C132.018 23.4 132.154 24.188 132.154 25.076C132.154 25.524 132.106 25.828 132.01 25.988C131.914 26.14 131.73 26.216 131.458 26.216H123.838ZM134.378 32V19.688H136.19C136.574 19.688 136.826 19.868 136.946 20.228L137.138 21.14C137.354 20.9 137.578 20.68 137.81 20.48C138.05 20.28 138.302 20.108 138.566 19.964C138.838 19.82 139.126 19.708 139.43 19.628C139.742 19.54 140.082 19.496 140.45 19.496C141.226 19.496 141.862 19.708 142.358 20.132C142.862 20.548 143.238 21.104 143.486 21.8C143.678 21.392 143.918 21.044 144.206 20.756C144.494 20.46 144.81 20.22 145.154 20.036C145.498 19.852 145.862 19.716 146.246 19.628C146.638 19.54 147.03 19.496 147.422 19.496C148.102 19.496 148.706 19.6 149.234 19.808C149.762 20.016 150.206 20.32 150.566 20.72C150.926 21.12 151.198 21.608 151.382 22.184C151.574 22.76 151.67 23.42 151.67 24.164V32H148.706V24.164C148.706 23.38 148.534 22.792 148.19 22.4C147.846 22 147.342 21.8 146.678 21.8C146.374 21.8 146.09 21.852 145.826 21.956C145.57 22.06 145.342 22.212 145.142 22.412C144.95 22.604 144.798 22.848 144.686 23.144C144.574 23.44 144.518 23.78 144.518 24.164V32H141.542V24.164C141.542 23.34 141.374 22.74 141.038 22.364C140.71 21.988 140.226 21.8 139.586 21.8C139.154 21.8 138.75 21.908 138.374 22.124C138.006 22.332 137.662 22.62 137.342 22.988V32H134.378ZM157.559 19.688V32H154.583V19.688H157.559ZM157.967 16.1C157.967 16.356 157.915 16.596 157.811 16.82C157.707 17.044 157.567 17.24 157.391 17.408C157.223 17.576 157.023 17.712 156.791 17.816C156.559 17.912 156.311 17.96 156.047 17.96C155.791 17.96 155.547 17.912 155.315 17.816C155.091 17.712 154.895 17.576 154.727 17.408C154.559 17.24 154.423 17.044 154.319 16.82C154.223 16.596 154.175 16.356 154.175 16.1C154.175 15.836 154.223 15.588 154.319 15.356C154.423 15.124 154.559 14.924 154.727 14.756C154.895 14.588 155.091 14.456 155.315 14.36C155.547 14.256 155.791 14.204 156.047 14.204C156.311 14.204 156.559 14.256 156.791 14.36C157.023 14.456 157.223 14.588 157.391 14.756C157.567 14.924 157.707 15.124 157.811 15.356C157.915 15.588 157.967 15.836 157.967 16.1ZM167.085 26.744C166.229 26.784 165.509 26.86 164.925 26.972C164.341 27.076 163.873 27.212 163.521 27.38C163.169 27.548 162.917 27.744 162.765 27.968C162.613 28.192 162.537 28.436 162.537 28.7C162.537 29.22 162.689 29.592 162.993 29.816C163.305 30.04 163.709 30.152 164.205 30.152C164.813 30.152 165.337 30.044 165.777 29.828C166.225 29.604 166.661 29.268 167.085 28.82V26.744ZM160.293 21.404C161.709 20.108 163.413 19.46 165.405 19.46C166.125 19.46 166.769 19.58 167.337 19.82C167.905 20.052 168.385 20.38 168.777 20.804C169.169 21.22 169.465 21.72 169.665 22.304C169.873 22.888 169.977 23.528 169.977 24.224V32H168.633C168.353 32 168.137 31.96 167.985 31.88C167.833 31.792 167.713 31.62 167.625 31.364L167.361 30.476C167.049 30.756 166.745 31.004 166.449 31.22C166.153 31.428 165.845 31.604 165.525 31.748C165.205 31.892 164.861 32 164.493 32.072C164.133 32.152 163.733 32.192 163.293 32.192C162.773 32.192 162.293 32.124 161.853 31.988C161.413 31.844 161.033 31.632 160.713 31.352C160.393 31.072 160.145 30.724 159.969 30.308C159.793 29.892 159.705 29.408 159.705 28.856C159.705 28.544 159.757 28.236 159.861 27.932C159.965 27.62 160.133 27.324 160.365 27.044C160.605 26.764 160.913 26.5 161.289 26.252C161.665 26.004 162.125 25.788 162.669 25.604C163.221 25.42 163.861 25.272 164.589 25.16C165.317 25.04 166.149 24.968 167.085 24.944V24.224C167.085 23.4 166.909 22.792 166.557 22.4C166.205 22 165.697 21.8 165.033 21.8C164.553 21.8 164.153 21.856 163.833 21.968C163.521 22.08 163.245 22.208 163.005 22.352C162.765 22.488 162.545 22.612 162.345 22.724C162.153 22.836 161.937 22.892 161.697 22.892C161.489 22.892 161.313 22.84 161.169 22.736C161.025 22.624 160.909 22.496 160.821 22.352L160.293 21.404ZM195.621 23.324C195.621 24.596 195.409 25.776 194.985 26.864C194.569 27.944 193.977 28.88 193.209 29.672C192.441 30.464 191.517 31.084 190.437 31.532C189.357 31.972 188.157 32.192 186.837 32.192C185.525 32.192 184.329 31.972 183.249 31.532C182.169 31.084 181.241 30.464 180.465 29.672C179.697 28.88 179.101 27.944 178.677 26.864C178.253 25.776 178.041 24.596 178.041 23.324C178.041 22.052 178.253 20.876 178.677 19.796C179.101 18.708 179.697 17.768 180.465 16.976C181.241 16.184 182.169 15.568 183.249 15.128C184.329 14.68 185.525 14.456 186.837 14.456C187.717 14.456 188.545 14.56 189.321 14.768C190.097 14.968 190.809 15.256 191.457 15.632C192.105 16 192.685 16.452 193.197 16.988C193.717 17.516 194.157 18.108 194.517 18.764C194.877 19.42 195.149 20.132 195.333 20.9C195.525 21.668 195.621 22.476 195.621 23.324ZM192.321 23.324C192.321 22.372 192.193 21.52 191.937 20.768C191.681 20.008 191.317 19.364 190.845 18.836C190.373 18.308 189.797 17.904 189.117 17.624C188.445 17.344 187.685 17.204 186.837 17.204C185.989 17.204 185.225 17.344 184.545 17.624C183.873 17.904 183.297 18.308 182.817 18.836C182.345 19.364 181.981 20.008 181.725 20.768C181.469 21.52 181.341 22.372 181.341 23.324C181.341 24.276 181.469 25.132 181.725 25.892C181.981 26.644 182.345 27.284 182.817 27.812C183.297 28.332 183.873 28.732 184.545 29.012C185.225 29.292 185.989 29.432 186.837 29.432C187.685 29.432 188.445 29.292 189.117 29.012C189.797 28.732 190.373 28.332 190.845 27.812C191.317 27.284 191.681 26.644 191.937 25.892C192.193 25.132 192.321 24.276 192.321 23.324ZM217.271 14.648V32H214.427V20.792C214.427 20.344 214.451 19.86 214.499 19.34L209.255 29.192C209.007 29.664 208.627 29.9 208.115 29.9H207.659C207.147 29.9 206.767 29.664 206.519 29.192L201.215 19.304C201.239 19.568 201.259 19.828 201.275 20.084C201.291 20.34 201.299 20.576 201.299 20.792V32H198.455V14.648H200.891C201.035 14.648 201.159 14.652 201.263 14.66C201.367 14.668 201.459 14.688 201.539 14.72C201.627 14.752 201.703 14.804 201.767 14.876C201.839 14.948 201.907 15.044 201.971 15.164L207.167 24.8C207.303 25.056 207.427 25.32 207.539 25.592C207.659 25.864 207.775 26.144 207.887 26.432C207.999 26.136 208.115 25.852 208.235 25.58C208.355 25.3 208.483 25.032 208.619 24.776L213.743 15.164C213.807 15.044 213.875 14.948 213.947 14.876C214.019 14.804 214.095 14.752 214.175 14.72C214.263 14.688 214.359 14.668 214.463 14.66C214.567 14.652 214.691 14.648 214.835 14.648H217.271ZM235.447 23.3V30.32C234.567 30.968 233.627 31.444 232.627 31.748C231.635 32.044 230.571 32.192 229.435 32.192C228.019 32.192 226.735 31.972 225.583 31.532C224.439 31.092 223.459 30.48 222.643 29.696C221.835 28.912 221.211 27.976 220.771 26.888C220.331 25.8 220.111 24.612 220.111 23.324C220.111 22.02 220.323 20.824 220.747 19.736C221.171 18.648 221.771 17.712 222.547 16.928C223.331 16.144 224.279 15.536 225.391 15.104C226.503 14.672 227.751 14.456 229.135 14.456C229.839 14.456 230.495 14.512 231.103 14.624C231.719 14.736 232.287 14.892 232.807 15.092C233.335 15.284 233.815 15.52 234.247 15.8C234.679 16.08 235.075 16.388 235.435 16.724L234.511 18.188C234.367 18.42 234.179 18.564 233.947 18.62C233.715 18.668 233.463 18.608 233.191 18.44C232.927 18.288 232.663 18.136 232.399 17.984C232.135 17.832 231.839 17.7 231.511 17.588C231.191 17.476 230.827 17.384 230.419 17.312C230.019 17.24 229.555 17.204 229.027 17.204C228.171 17.204 227.395 17.348 226.699 17.636C226.011 17.924 225.423 18.336 224.935 18.872C224.447 19.408 224.071 20.052 223.807 20.804C223.543 21.556 223.411 22.396 223.411 23.324C223.411 24.316 223.551 25.204 223.831 25.988C224.119 26.764 224.519 27.424 225.031 27.968C225.551 28.504 226.175 28.916 226.903 29.204C227.631 29.484 228.443 29.624 229.339 29.624C229.979 29.624 230.551 29.556 231.055 29.42C231.559 29.284 232.051 29.1 232.531 28.868V25.724H230.347C230.139 25.724 229.975 25.668 229.855 25.556C229.743 25.436 229.687 25.292 229.687 25.124V23.3H235.447Z" fill="#FEFEFE"/>
<path d="M53.4724 48H52.4054V40.1185H53.4724V48ZM56.0955 43.237C56.2165 43.1013 56.3448 42.9785 56.4805 42.8685C56.6162 42.7585 56.7592 42.665 56.9095 42.588C57.0635 42.5073 57.2248 42.4468 57.3935 42.4065C57.5658 42.3625 57.751 42.3405 57.949 42.3405C58.2533 42.3405 58.521 42.3918 58.752 42.4945C58.9867 42.5935 59.181 42.7365 59.335 42.9235C59.4927 43.1068 59.6118 43.3287 59.6925 43.589C59.7732 43.8493 59.8135 44.1372 59.8135 44.4525V48H58.829V44.4525C58.829 44.0308 58.7318 43.7045 58.5375 43.4735C58.3468 43.2388 58.0553 43.1215 57.663 43.1215C57.3733 43.1215 57.102 43.1912 56.849 43.3305C56.5997 43.4698 56.3687 43.6587 56.156 43.897V48H55.1715V42.4285H55.76C55.8993 42.4285 55.9855 42.4963 56.0185 42.632L56.0955 43.237ZM64.5503 43.347C64.5063 43.4277 64.4385 43.468 64.3468 43.468C64.2918 43.468 64.2295 43.4478 64.1598 43.4075C64.0901 43.3672 64.004 43.3232 63.9013 43.2755C63.8023 43.2242 63.6831 43.1783 63.5438 43.138C63.4045 43.094 63.2395 43.072 63.0488 43.072C62.8838 43.072 62.7353 43.094 62.6033 43.138C62.4713 43.1783 62.3576 43.2352 62.2623 43.3085C62.1706 43.3818 62.0991 43.468 62.0478 43.567C62.0001 43.6623 61.9763 43.7668 61.9763 43.8805C61.9763 44.0235 62.0166 44.1427 62.0973 44.238C62.1816 44.3333 62.2916 44.4158 62.4273 44.4855C62.563 44.5552 62.717 44.6175 62.8893 44.6725C63.0616 44.7238 63.2376 44.7807 63.4173 44.843C63.6006 44.9017 63.7785 44.9677 63.9508 45.041C64.1231 45.1143 64.2771 45.206 64.4128 45.316C64.5485 45.426 64.6566 45.5617 64.7373 45.723C64.8216 45.8807 64.8638 46.0713 64.8638 46.295C64.8638 46.5517 64.818 46.79 64.7263 47.01C64.6346 47.2263 64.499 47.4152 64.3193 47.5765C64.1396 47.7342 63.9196 47.8588 63.6593 47.9505C63.399 48.0422 63.0983 48.088 62.7573 48.088C62.3686 48.088 62.0166 48.0257 61.7013 47.901C61.386 47.7727 61.1183 47.6095 60.8983 47.4115L61.1293 47.0375C61.1586 46.9898 61.1935 46.9532 61.2338 46.9275C61.2741 46.9018 61.3255 46.889 61.3878 46.889C61.4538 46.889 61.5235 46.9147 61.5968 46.966C61.6701 47.0173 61.7581 47.0742 61.8608 47.1365C61.9671 47.1988 62.0955 47.2557 62.2458 47.307C62.3961 47.3583 62.5831 47.384 62.8068 47.384C62.9975 47.384 63.1643 47.3602 63.3073 47.3125C63.4503 47.2612 63.5695 47.1933 63.6648 47.109C63.7601 47.0247 63.8298 46.9275 63.8738 46.8175C63.9215 46.7075 63.9453 46.5902 63.9453 46.4655C63.9453 46.3115 63.9031 46.185 63.8188 46.086C63.7381 45.9833 63.63 45.8972 63.4943 45.8275C63.3586 45.7542 63.2028 45.6918 63.0268 45.6405C62.8545 45.5855 62.6766 45.5287 62.4933 45.47C62.3136 45.4113 62.1358 45.3453 61.9598 45.272C61.7875 45.195 61.6335 45.0997 61.4978 44.986C61.3621 44.8723 61.2521 44.733 61.1678 44.568C61.0871 44.3993 61.0468 44.1958 61.0468 43.9575C61.0468 43.7448 61.0908 43.5413 61.1788 43.347C61.2668 43.149 61.3951 42.9767 61.5638 42.83C61.7325 42.6797 61.9396 42.5605 62.1853 42.4725C62.431 42.3845 62.7115 42.3405 63.0268 42.3405C63.3935 42.3405 63.7216 42.3992 64.0113 42.5165C64.3046 42.6302 64.5576 42.7878 64.7703 42.9895L64.5503 43.347ZM71.2341 48H70.2551V43.248H67.3841V46.592C67.3841 46.8267 67.4409 47.0008 67.5546 47.1145C67.6682 47.2282 67.8149 47.285 67.9946 47.285C68.0972 47.285 68.1852 47.2722 68.2586 47.2465C68.3356 47.2172 68.4016 47.186 68.4566 47.153C68.5116 47.12 68.5574 47.0907 68.5941 47.065C68.6344 47.0357 68.6692 47.021 68.6986 47.021C68.7499 47.021 68.7957 47.0522 68.8361 47.1145L69.1221 47.582C68.9534 47.7397 68.7499 47.8643 68.5116 47.956C68.2732 48.044 68.0276 48.088 67.7746 48.088C67.3346 48.088 66.9954 47.9652 66.7571 47.7195C66.5224 47.4738 66.4051 47.12 66.4051 46.658V43.248H65.7341C65.6754 43.248 65.6259 43.2315 65.5856 43.1985C65.5452 43.1618 65.5251 43.1068 65.5251 43.0335V42.643L66.4381 42.522L66.6636 40.806C66.6746 40.751 66.6984 40.707 66.7351 40.674C66.7754 40.6373 66.8267 40.619 66.8891 40.619H67.3841V42.5385H71.2341V48ZM71.4761 40.641C71.4761 40.7363 71.4559 40.8262 71.4156 40.9105C71.3789 40.9912 71.3276 41.0627 71.2616 41.125C71.1992 41.1873 71.1259 41.2368 71.0416 41.2735C70.9572 41.3102 70.8674 41.3285 70.7721 41.3285C70.6767 41.3285 70.5869 41.3102 70.5026 41.2735C70.4219 41.2368 70.3504 41.1873 70.2881 41.125C70.2257 41.0627 70.1762 40.9912 70.1396 40.9105C70.1029 40.8262 70.0846 40.7363 70.0846 40.641C70.0846 40.5457 70.1029 40.4558 70.1396 40.3715C70.1762 40.2835 70.2257 40.2083 70.2881 40.146C70.3504 40.08 70.4219 40.0287 70.5026 39.992C70.5869 39.9553 70.6767 39.937 70.7721 39.937C70.8674 39.937 70.9572 39.9553 71.0416 39.992C71.1259 40.0287 71.1992 40.08 71.2616 40.146C71.3276 40.2083 71.3789 40.2835 71.4156 40.3715C71.4559 40.4558 71.4761 40.5457 71.4761 40.641ZM74.5529 48.088C74.1129 48.088 73.7737 47.9652 73.5354 47.7195C73.3007 47.4738 73.1834 47.12 73.1834 46.658V43.248H72.5124C72.4537 43.248 72.4042 43.2315 72.3639 43.1985C72.3236 43.1618 72.3034 43.1068 72.3034 43.0335V42.643L73.2164 42.5275L73.4419 40.806C73.4529 40.751 73.4767 40.707 73.5134 40.674C73.5537 40.6373 73.6051 40.619 73.6674 40.619H74.1624V42.5385H75.7739V43.248H74.1624V46.592C74.1624 46.8267 74.2192 47.0008 74.3329 47.1145C74.4466 47.2282 74.5932 47.285 74.7729 47.285C74.8756 47.285 74.9636 47.2722 75.0369 47.2465C75.1139 47.2172 75.1799 47.186 75.2349 47.153C75.2899 47.12 75.3357 47.0907 75.3724 47.065C75.4127 47.0357 75.4476 47.021 75.4769 47.021C75.5282 47.021 75.5741 47.0522 75.6144 47.1145L75.9004 47.582C75.7317 47.7397 75.5282 47.8643 75.2899 47.956C75.0516 48.044 74.8059 48.088 74.5529 48.088ZM81.3663 42.4285V48H80.7833C80.6439 48 80.5559 47.9322 80.5193 47.7965L80.4423 47.197C80.2003 47.4647 79.9289 47.681 79.6283 47.846C79.3276 48.0073 78.9829 48.088 78.5943 48.088C78.2899 48.088 78.0204 48.0385 77.7858 47.9395C77.5548 47.8368 77.3604 47.6938 77.2028 47.5105C77.0451 47.3272 76.9259 47.1053 76.8453 46.845C76.7683 46.5847 76.7298 46.2968 76.7298 45.9815V42.4285H77.7088V45.9815C77.7088 46.4032 77.8041 46.7295 77.9948 46.9605C78.1891 47.1915 78.4843 47.307 78.8803 47.307C79.1699 47.307 79.4394 47.2392 79.6888 47.1035C79.9418 46.9642 80.1746 46.7735 80.3873 46.5315V42.4285H81.3663ZM86.7961 43.4185C86.7667 43.4588 86.7374 43.49 86.7081 43.512C86.6787 43.534 86.6384 43.545 86.5871 43.545C86.5321 43.545 86.4716 43.523 86.4056 43.479C86.3396 43.4313 86.2571 43.38 86.1581 43.325C86.0627 43.27 85.9436 43.2205 85.8006 43.1765C85.6612 43.1288 85.4889 43.105 85.2836 43.105C85.0086 43.105 84.7666 43.1545 84.5576 43.2535C84.3486 43.3488 84.1726 43.4882 84.0296 43.6715C83.8902 43.8548 83.7839 44.0767 83.7106 44.337C83.6409 44.5973 83.6061 44.8888 83.6061 45.2115C83.6061 45.5488 83.6446 45.8495 83.7216 46.1135C83.7986 46.3738 83.9067 46.5938 84.0461 46.7735C84.1891 46.9495 84.3596 47.0852 84.5576 47.1805C84.7592 47.2722 84.9847 47.318 85.2341 47.318C85.4724 47.318 85.6686 47.2905 85.8226 47.2355C85.9766 47.1768 86.1031 47.1127 86.2021 47.043C86.3047 46.9733 86.3891 46.911 86.4551 46.856C86.5247 46.7973 86.5926 46.768 86.6586 46.768C86.7392 46.768 86.8016 46.7992 86.8456 46.8615L87.1206 47.219C86.9996 47.3693 86.8621 47.4977 86.7081 47.604C86.5541 47.7103 86.3872 47.8002 86.2076 47.8735C86.0316 47.9432 85.8464 47.9945 85.6521 48.0275C85.4577 48.0605 85.2597 48.077 85.0581 48.077C84.7097 48.077 84.3852 48.0128 84.0846 47.8845C83.7876 47.7562 83.5291 47.571 83.3091 47.329C83.0891 47.0833 82.9167 46.7827 82.7921 46.427C82.6674 46.0713 82.6051 45.6662 82.6051 45.2115C82.6051 44.7972 82.6619 44.414 82.7756 44.062C82.8929 43.71 83.0616 43.4075 83.2816 43.1545C83.5052 42.8978 83.7784 42.698 84.1011 42.555C84.4274 42.412 84.8014 42.3405 85.2231 42.3405C85.6154 42.3405 85.9601 42.4047 86.2571 42.533C86.5577 42.6577 86.8236 42.8355 87.0546 43.0665L86.7961 43.4185ZM89.2055 42.4285V48H88.2265V42.4285H89.2055ZM89.4145 40.6795C89.4145 40.7748 89.3943 40.8647 89.354 40.949C89.3173 41.0297 89.266 41.103 89.2 41.169C89.1377 41.2313 89.0625 41.2808 88.9745 41.3175C88.8902 41.3542 88.8003 41.3725 88.705 41.3725C88.6097 41.3725 88.5198 41.3542 88.4355 41.3175C88.3548 41.2808 88.2833 41.2313 88.221 41.169C88.1587 41.103 88.1092 41.0297 88.0725 40.949C88.0358 40.8647 88.0175 40.7748 88.0175 40.6795C88.0175 40.5842 88.0358 40.4943 88.0725 40.41C88.1092 40.322 88.1587 40.2468 88.221 40.1845C88.2833 40.1185 88.3548 40.0672 88.4355 40.0305C88.5198 39.9938 88.6097 39.9755 88.705 39.9755C88.8003 39.9755 88.8902 39.9938 88.9745 40.0305C89.0625 40.0672 89.1377 40.1185 89.2 40.1845C89.266 40.2468 89.3173 40.322 89.354 40.41C89.3943 40.4943 89.4145 40.5842 89.4145 40.6795ZM93.1626 42.3405C93.5696 42.3405 93.9362 42.4083 94.2626 42.544C94.5889 42.6797 94.8676 42.8722 95.0986 43.1215C95.3296 43.3708 95.5056 43.6733 95.6266 44.029C95.7512 44.381 95.8136 44.7752 95.8136 45.2115C95.8136 45.6515 95.7512 46.0475 95.6266 46.3995C95.5056 46.7515 95.3296 47.0522 95.0986 47.3015C94.8676 47.5508 94.5889 47.7433 94.2626 47.879C93.9362 48.011 93.5696 48.077 93.1626 48.077C92.7519 48.077 92.3816 48.011 92.0516 47.879C91.7252 47.7433 91.4466 47.5508 91.2156 47.3015C90.9846 47.0522 90.8067 46.7515 90.6821 46.3995C90.5611 46.0475 90.5006 45.6515 90.5006 45.2115C90.5006 44.7752 90.5611 44.381 90.6821 44.029C90.8067 43.6733 90.9846 43.3708 91.2156 43.1215C91.4466 42.8722 91.7252 42.6797 92.0516 42.544C92.3816 42.4083 92.7519 42.3405 93.1626 42.3405ZM93.1626 47.3125C93.7126 47.3125 94.1232 47.1292 94.3946 46.7625C94.6659 46.3922 94.8016 45.877 94.8016 45.217C94.8016 44.5533 94.6659 44.0363 94.3946 43.666C94.1232 43.2957 93.7126 43.1105 93.1626 43.1105C92.8839 43.1105 92.6401 43.1582 92.4311 43.2535C92.2257 43.3488 92.0534 43.4863 91.9141 43.666C91.7784 43.8457 91.6757 44.0675 91.6061 44.3315C91.5401 44.5918 91.5071 44.887 91.5071 45.217C91.5071 45.877 91.6427 46.3922 91.9141 46.7625C92.1891 47.1292 92.6052 47.3125 93.1626 47.3125ZM94.7686 40.0305L93.4871 41.4495C93.4357 41.5045 93.3844 41.5448 93.3331 41.5705C93.2854 41.5925 93.2231 41.6035 93.1461 41.6035H92.5631L93.3771 40.2725C93.4284 40.1882 93.4834 40.1277 93.5421 40.091C93.6044 40.0507 93.6942 40.0305 93.8116 40.0305H94.7686ZM97.9793 43.237C98.1003 43.1013 98.2286 42.9785 98.3643 42.8685C98.5 42.7585 98.643 42.665 98.7933 42.588C98.9473 42.5073 99.1086 42.4468 99.2773 42.4065C99.4496 42.3625 99.6348 42.3405 99.8328 42.3405C100.137 42.3405 100.405 42.3918 100.636 42.4945C100.87 42.5935 101.065 42.7365 101.219 42.9235C101.376 43.1068 101.496 43.3287 101.576 43.589C101.657 43.8493 101.697 44.1372 101.697 44.4525V48H100.713V44.4525C100.713 44.0308 100.616 43.7045 100.421 43.4735C100.231 43.2388 99.9391 43.1215 99.5468 43.1215C99.2571 43.1215 98.9858 43.1912 98.7328 43.3305C98.4835 43.4698 98.2525 43.6587 98.0398 43.897V48H97.0553V42.4285H97.6438C97.7831 42.4285 97.8693 42.4963 97.9023 42.632L97.9793 43.237ZM109.634 43.754C109.45 43.5083 109.252 43.3378 109.04 43.2425C108.827 43.1435 108.589 43.094 108.325 43.094C107.808 43.094 107.41 43.2792 107.131 43.6495C106.852 44.0198 106.713 44.5478 106.713 45.2335C106.713 45.5965 106.744 45.9082 106.807 46.1685C106.869 46.4252 106.961 46.6378 107.082 46.8065C107.203 46.9715 107.351 47.0925 107.527 47.1695C107.703 47.2465 107.903 47.285 108.127 47.285C108.449 47.285 108.73 47.2117 108.968 47.065C109.21 46.9183 109.432 46.7112 109.634 46.4435V43.754ZM110.613 39.8985V48H110.03C109.89 48 109.802 47.9322 109.766 47.7965L109.678 47.12C109.439 47.406 109.168 47.637 108.864 47.813C108.559 47.989 108.207 48.077 107.808 48.077C107.489 48.077 107.199 48.0165 106.939 47.8955C106.678 47.7708 106.456 47.5893 106.273 47.351C106.09 47.1127 105.949 46.8157 105.85 46.46C105.751 46.1043 105.701 45.6955 105.701 45.2335C105.701 44.8228 105.756 44.4415 105.866 44.0895C105.976 43.7338 106.134 43.4258 106.339 43.1655C106.544 42.9052 106.796 42.7017 107.093 42.555C107.393 42.4047 107.731 42.3295 108.105 42.3295C108.446 42.3295 108.737 42.3882 108.979 42.5055C109.225 42.6192 109.443 42.7787 109.634 42.984V39.8985H110.613ZM115.888 44.6065C115.888 44.3792 115.855 44.172 115.789 43.985C115.726 43.7943 115.633 43.6312 115.508 43.4955C115.387 43.3562 115.239 43.2498 115.063 43.1765C114.887 43.0995 114.687 43.061 114.463 43.061C113.994 43.061 113.622 43.1985 113.347 43.4735C113.075 43.7448 112.907 44.1225 112.841 44.6065H115.888ZM116.68 47.219C116.559 47.3657 116.414 47.494 116.245 47.604C116.077 47.7103 115.895 47.7983 115.701 47.868C115.51 47.9377 115.312 47.989 115.107 48.022C114.901 48.0587 114.698 48.077 114.496 48.077C114.111 48.077 113.756 48.0128 113.429 47.8845C113.107 47.7525 112.826 47.5618 112.588 47.3125C112.353 47.0595 112.17 46.7478 112.038 46.3775C111.906 46.0072 111.84 45.5818 111.84 45.1015C111.84 44.7128 111.898 44.3498 112.016 44.0125C112.137 43.6752 112.309 43.3837 112.533 43.138C112.756 42.8887 113.03 42.6943 113.352 42.555C113.675 42.412 114.038 42.3405 114.441 42.3405C114.775 42.3405 115.083 42.3973 115.365 42.511C115.651 42.621 115.897 42.7823 116.102 42.995C116.311 43.204 116.474 43.4643 116.592 43.776C116.709 44.084 116.768 44.436 116.768 44.832C116.768 44.986 116.751 45.0887 116.718 45.14C116.685 45.1913 116.623 45.217 116.531 45.217H112.808C112.819 45.569 112.866 45.8752 112.951 46.1355C113.039 46.3958 113.16 46.614 113.314 46.79C113.468 46.9623 113.651 47.0925 113.864 47.1805C114.076 47.2648 114.315 47.307 114.579 47.307C114.824 47.307 115.035 47.2795 115.211 47.2245C115.391 47.1658 115.545 47.1035 115.673 47.0375C115.802 46.9715 115.908 46.911 115.992 46.856C116.08 46.7973 116.155 46.768 116.218 46.768C116.298 46.768 116.361 46.7992 116.405 46.8615L116.68 47.219ZM121.797 39.8985V48H120.818V39.8985H121.797ZM126.404 45.492C125.953 45.5067 125.568 45.5433 125.249 45.602C124.934 45.657 124.675 45.7303 124.473 45.822C124.275 45.9137 124.131 46.0218 124.039 46.1465C123.951 46.2712 123.907 46.4105 123.907 46.5645C123.907 46.7112 123.931 46.8377 123.978 46.944C124.026 47.0503 124.09 47.1383 124.171 47.208C124.255 47.274 124.352 47.3235 124.462 47.3565C124.576 47.3858 124.697 47.4005 124.825 47.4005C124.998 47.4005 125.155 47.384 125.298 47.351C125.441 47.3143 125.575 47.263 125.7 47.197C125.828 47.131 125.949 47.0522 126.063 46.9605C126.18 46.8688 126.294 46.7643 126.404 46.647V45.492ZM123.241 43.215C123.549 42.918 123.881 42.6962 124.237 42.5495C124.593 42.4028 124.987 42.3295 125.419 42.3295C125.731 42.3295 126.008 42.3808 126.25 42.4835C126.492 42.5862 126.695 42.7292 126.86 42.9125C127.025 43.0958 127.15 43.3177 127.234 43.578C127.319 43.8383 127.361 44.1243 127.361 44.436V48H126.926C126.831 48 126.758 47.9853 126.706 47.956C126.655 47.923 126.615 47.8607 126.585 47.769L126.475 47.241C126.329 47.3767 126.186 47.4977 126.046 47.604C125.907 47.7067 125.76 47.7947 125.606 47.868C125.452 47.9377 125.287 47.9908 125.111 48.0275C124.939 48.0678 124.747 48.088 124.534 48.088C124.318 48.088 124.114 48.0587 123.923 48C123.733 47.9377 123.566 47.846 123.423 47.725C123.284 47.604 123.172 47.4518 123.087 47.2685C123.007 47.0815 122.966 46.8615 122.966 46.6085C122.966 46.3885 123.027 46.1777 123.148 45.976C123.269 45.7707 123.465 45.5892 123.736 45.4315C124.008 45.2738 124.362 45.1455 124.798 45.0465C125.234 44.9438 125.77 44.8852 126.404 44.8705V44.436C126.404 44.0033 126.31 43.677 126.123 43.457C125.936 43.2333 125.663 43.1215 125.304 43.1215C125.062 43.1215 124.858 43.1527 124.693 43.215C124.532 43.2737 124.391 43.3415 124.27 43.4185C124.153 43.4918 124.05 43.5597 123.962 43.622C123.878 43.6807 123.793 43.71 123.709 43.71C123.643 43.71 123.586 43.6935 123.538 43.6605C123.491 43.6238 123.45 43.5798 123.417 43.5285L123.241 43.215ZM135.396 44.6065C135.396 44.3792 135.363 44.172 135.297 43.985C135.234 43.7943 135.141 43.6312 135.016 43.4955C134.895 43.3562 134.747 43.2498 134.571 43.1765C134.395 43.0995 134.195 43.061 133.971 43.061C133.502 43.061 133.13 43.1985 132.855 43.4735C132.583 43.7448 132.415 44.1225 132.349 44.6065H135.396ZM136.188 47.219C136.067 47.3657 135.922 47.494 135.753 47.604C135.584 47.7103 135.403 47.7983 135.209 47.868C135.018 47.9377 134.82 47.989 134.615 48.022C134.409 48.0587 134.206 48.077 134.004 48.077C133.619 48.077 133.263 48.0128 132.937 47.8845C132.614 47.7525 132.334 47.5618 132.096 47.3125C131.861 47.0595 131.678 46.7478 131.546 46.3775C131.414 46.0072 131.348 45.5818 131.348 45.1015C131.348 44.7128 131.406 44.3498 131.524 44.0125C131.645 43.6752 131.817 43.3837 132.041 43.138C132.264 42.8887 132.537 42.6943 132.86 42.555C133.183 42.412 133.546 42.3405 133.949 42.3405C134.283 42.3405 134.591 42.3973 134.873 42.511C135.159 42.621 135.405 42.7823 135.61 42.995C135.819 43.204 135.982 43.4643 136.1 43.776C136.217 44.084 136.276 44.436 136.276 44.832C136.276 44.986 136.259 45.0887 136.226 45.14C136.193 45.1913 136.131 45.217 136.039 45.217H132.316C132.327 45.569 132.374 45.8752 132.459 46.1355C132.547 46.3958 132.668 46.614 132.822 46.79C132.976 46.9623 133.159 47.0925 133.372 47.1805C133.584 47.2648 133.823 47.307 134.087 47.307C134.332 47.307 134.543 47.2795 134.719 47.2245C134.899 47.1658 135.053 47.1035 135.181 47.0375C135.309 46.9715 135.416 46.911 135.5 46.856C135.588 46.7973 135.663 46.768 135.726 46.768C135.806 46.768 135.869 46.7992 135.913 46.8615L136.188 47.219ZM141.108 43.754C140.925 43.5083 140.727 43.3378 140.514 43.2425C140.301 43.1435 140.063 43.094 139.799 43.094C139.282 43.094 138.884 43.2792 138.606 43.6495C138.327 44.0198 138.188 44.5478 138.188 45.2335C138.188 45.5965 138.219 45.9082 138.281 46.1685C138.343 46.4252 138.435 46.6378 138.556 46.8065C138.677 46.9715 138.826 47.0925 139.002 47.1695C139.178 47.2465 139.377 47.285 139.601 47.285C139.924 47.285 140.204 47.2117 140.443 47.065C140.685 46.9183 140.906 46.7112 141.108 46.4435V43.754ZM142.087 39.8985V48H141.504C141.365 48 141.277 47.9322 141.24 47.7965L141.152 47.12C140.914 47.406 140.642 47.637 140.338 47.813C140.034 47.989 139.682 48.077 139.282 48.077C138.963 48.077 138.673 48.0165 138.413 47.8955C138.153 47.7708 137.931 47.5893 137.748 47.351C137.564 47.1127 137.423 46.8157 137.324 46.46C137.225 46.1043 137.176 45.6955 137.176 45.2335C137.176 44.8228 137.231 44.4415 137.341 44.0895C137.451 43.7338 137.608 43.4258 137.814 43.1655C138.019 42.9052 138.27 42.7017 138.567 42.555C138.868 42.4047 139.205 42.3295 139.579 42.3295C139.92 42.3295 140.212 42.3882 140.454 42.5055C140.699 42.6192 140.917 42.7787 141.108 42.984V39.8985H142.087ZM148.215 42.4285V48H147.632C147.493 48 147.405 47.9322 147.368 47.7965L147.291 47.197C147.049 47.4647 146.778 47.681 146.477 47.846C146.176 48.0073 145.832 48.088 145.443 48.088C145.139 48.088 144.869 48.0385 144.634 47.9395C144.403 47.8368 144.209 47.6938 144.051 47.5105C143.894 47.3272 143.775 47.1053 143.694 46.845C143.617 46.5847 143.578 46.2968 143.578 45.9815V42.4285H144.557V45.9815C144.557 46.4032 144.653 46.7295 144.843 46.9605C145.038 47.1915 145.333 47.307 145.729 47.307C146.019 47.307 146.288 47.2392 146.537 47.1035C146.79 46.9642 147.023 46.7735 147.236 46.5315V42.4285H148.215ZM153.645 43.4185C153.615 43.4588 153.586 43.49 153.557 43.512C153.527 43.534 153.487 43.545 153.436 43.545C153.381 43.545 153.32 43.523 153.254 43.479C153.188 43.4313 153.106 43.38 153.007 43.325C152.911 43.27 152.792 43.2205 152.649 43.1765C152.51 43.1288 152.338 43.105 152.132 43.105C151.857 43.105 151.615 43.1545 151.406 43.2535C151.197 43.3488 151.021 43.4882 150.878 43.6715C150.739 43.8548 150.633 44.0767 150.559 44.337C150.49 44.5973 150.455 44.8888 150.455 45.2115C150.455 45.5488 150.493 45.8495 150.57 46.1135C150.647 46.3738 150.755 46.5938 150.895 46.7735C151.038 46.9495 151.208 47.0852 151.406 47.1805C151.608 47.2722 151.833 47.318 152.083 47.318C152.321 47.318 152.517 47.2905 152.671 47.2355C152.825 47.1768 152.952 47.1127 153.051 47.043C153.153 46.9733 153.238 46.911 153.304 46.856C153.373 46.7973 153.441 46.768 153.507 46.768C153.588 46.768 153.65 46.7992 153.694 46.8615L153.969 47.219C153.848 47.3693 153.711 47.4977 153.557 47.604C153.403 47.7103 153.236 47.8002 153.056 47.8735C152.88 47.9432 152.695 47.9945 152.501 48.0275C152.306 48.0605 152.108 48.077 151.907 48.077C151.558 48.077 151.234 48.0128 150.933 47.8845C150.636 47.7562 150.378 47.571 150.158 47.329C149.938 47.0833 149.765 46.7827 149.641 46.427C149.516 46.0713 149.454 45.6662 149.454 45.2115C149.454 44.7972 149.511 44.414 149.624 44.062C149.742 43.71 149.91 43.4075 150.13 43.1545C150.354 42.8978 150.627 42.698 150.95 42.555C151.276 42.412 151.65 42.3405 152.072 42.3405C152.464 42.3405 152.809 42.4047 153.106 42.533C153.406 42.6577 153.672 42.8355 153.903 43.0665L153.645 43.4185ZM158.04 45.492C157.589 45.5067 157.204 45.5433 156.885 45.602C156.569 45.657 156.311 45.7303 156.109 45.822C155.911 45.9137 155.766 46.0218 155.675 46.1465C155.587 46.2712 155.543 46.4105 155.543 46.5645C155.543 46.7112 155.566 46.8377 155.614 46.944C155.662 47.0503 155.726 47.1383 155.807 47.208C155.891 47.274 155.988 47.3235 156.098 47.3565C156.212 47.3858 156.333 47.4005 156.461 47.4005C156.633 47.4005 156.791 47.384 156.934 47.351C157.077 47.3143 157.211 47.263 157.336 47.197C157.464 47.131 157.585 47.0522 157.699 46.9605C157.816 46.8688 157.93 46.7643 158.04 46.647V45.492ZM154.877 43.215C155.185 42.918 155.517 42.6962 155.873 42.5495C156.228 42.4028 156.622 42.3295 157.055 42.3295C157.367 42.3295 157.644 42.3808 157.886 42.4835C158.128 42.5862 158.331 42.7292 158.496 42.9125C158.661 43.0958 158.786 43.3177 158.87 43.578C158.954 43.8383 158.997 44.1243 158.997 44.436V48H158.562C158.467 48 158.393 47.9853 158.342 47.956C158.291 47.923 158.25 47.8607 158.221 47.769L158.111 47.241C157.964 47.3767 157.821 47.4977 157.682 47.604C157.543 47.7067 157.396 47.7947 157.242 47.868C157.088 47.9377 156.923 47.9908 156.747 48.0275C156.575 48.0678 156.382 48.088 156.17 48.088C155.953 48.088 155.75 48.0587 155.559 48C155.368 47.9377 155.202 47.846 155.059 47.725C154.919 47.604 154.807 47.4518 154.723 47.2685C154.642 47.0815 154.602 46.8615 154.602 46.6085C154.602 46.3885 154.663 46.1777 154.784 45.976C154.905 45.7707 155.101 45.5892 155.372 45.4315C155.643 45.2738 155.997 45.1455 156.434 45.0465C156.87 44.9438 157.405 44.8852 158.04 44.8705V44.436C158.04 44.0033 157.946 43.677 157.759 43.457C157.572 43.2333 157.299 43.1215 156.94 43.1215C156.698 43.1215 156.494 43.1527 156.329 43.215C156.168 43.2737 156.027 43.3415 155.906 43.4185C155.788 43.4918 155.686 43.5597 155.598 43.622C155.513 43.6807 155.429 43.71 155.345 43.71C155.279 43.71 155.222 43.6935 155.174 43.6605C155.126 43.6238 155.086 43.5798 155.053 43.5285L154.877 43.215ZM164.365 43.4185C164.336 43.4588 164.307 43.49 164.277 43.512C164.248 43.534 164.208 43.545 164.156 43.545C164.101 43.545 164.041 43.523 163.975 43.479C163.909 43.4313 163.826 43.38 163.727 43.325C163.632 43.27 163.513 43.2205 163.37 43.1765C163.231 43.1288 163.058 43.105 162.853 43.105C162.578 43.105 162.336 43.1545 162.127 43.2535C161.918 43.3488 161.742 43.4882 161.599 43.6715C161.46 43.8548 161.353 44.0767 161.28 44.337C161.21 44.5973 161.175 44.8888 161.175 45.2115C161.175 45.5488 161.214 45.8495 161.291 46.1135C161.368 46.3738 161.476 46.5938 161.615 46.7735C161.758 46.9495 161.929 47.0852 162.127 47.1805C162.329 47.2722 162.554 47.318 162.803 47.318C163.042 47.318 163.238 47.2905 163.392 47.2355C163.546 47.1768 163.672 47.1127 163.771 47.043C163.874 46.9733 163.958 46.911 164.024 46.856C164.094 46.7973 164.162 46.768 164.228 46.768C164.309 46.768 164.371 46.7992 164.415 46.8615L164.69 47.219C164.569 47.3693 164.431 47.4977 164.277 47.604C164.123 47.7103 163.957 47.8002 163.777 47.8735C163.601 47.9432 163.416 47.9945 163.221 48.0275C163.027 48.0605 162.829 48.077 162.627 48.077C162.279 48.077 161.955 48.0128 161.654 47.8845C161.357 47.7562 161.098 47.571 160.878 47.329C160.658 47.0833 160.486 46.7827 160.361 46.427C160.237 46.0713 160.174 45.6662 160.174 45.2115C160.174 44.7972 160.231 44.414 160.345 44.062C160.462 43.71 160.631 43.4075 160.851 43.1545C161.075 42.8978 161.348 42.698 161.67 42.555C161.997 42.412 162.371 42.3405 162.792 42.3405C163.185 42.3405 163.529 42.4047 163.826 42.533C164.127 42.6577 164.393 42.8355 164.624 43.0665L164.365 43.4185ZM166.775 42.4285V48H165.796V42.4285H166.775ZM166.984 40.6795C166.984 40.7748 166.964 40.8647 166.923 40.949C166.887 41.0297 166.835 41.103 166.769 41.169C166.707 41.2313 166.632 41.2808 166.544 41.3175C166.459 41.3542 166.37 41.3725 166.274 41.3725C166.179 41.3725 166.089 41.3542 166.005 41.3175C165.924 41.2808 165.853 41.2313 165.79 41.169C165.728 41.103 165.678 41.0297 165.642 40.949C165.605 40.8647 165.587 40.7748 165.587 40.6795C165.587 40.5842 165.605 40.4943 165.642 40.41C165.678 40.322 165.728 40.2468 165.79 40.1845C165.853 40.1185 165.924 40.0672 166.005 40.0305C166.089 39.9938 166.179 39.9755 166.274 39.9755C166.37 39.9755 166.459 39.9938 166.544 40.0305C166.632 40.0672 166.707 40.1185 166.769 40.1845C166.835 40.2468 166.887 40.322 166.923 40.41C166.964 40.4943 166.984 40.5842 166.984 40.6795ZM170.732 42.3405C171.139 42.3405 171.506 42.4083 171.832 42.544C172.158 42.6797 172.437 42.8722 172.668 43.1215C172.899 43.3708 173.075 43.6733 173.196 44.029C173.321 44.381 173.383 44.7752 173.383 45.2115C173.383 45.6515 173.321 46.0475 173.196 46.3995C173.075 46.7515 172.899 47.0522 172.668 47.3015C172.437 47.5508 172.158 47.7433 171.832 47.879C171.506 48.011 171.139 48.077 170.732 48.077C170.321 48.077 169.951 48.011 169.621 47.879C169.295 47.7433 169.016 47.5508 168.785 47.3015C168.554 47.0522 168.376 46.7515 168.251 46.3995C168.13 46.0475 168.07 45.6515 168.07 45.2115C168.07 44.7752 168.13 44.381 168.251 44.029C168.376 43.6733 168.554 43.3708 168.785 43.1215C169.016 42.8722 169.295 42.6797 169.621 42.544C169.951 42.4083 170.321 42.3405 170.732 42.3405ZM170.732 47.3125C171.282 47.3125 171.693 47.1292 171.964 46.7625C172.235 46.3922 172.371 45.877 172.371 45.217C172.371 44.5533 172.235 44.0363 171.964 43.666C171.693 43.2957 171.282 43.1105 170.732 43.1105C170.453 43.1105 170.209 43.1582 170 43.2535C169.795 43.3488 169.623 43.4863 169.483 43.666C169.348 43.8457 169.245 44.0675 169.175 44.3315C169.109 44.5918 169.076 44.887 169.076 45.217C169.076 45.877 169.212 46.3922 169.483 46.7625C169.758 47.1292 170.175 47.3125 170.732 47.3125ZM172.338 40.0305L171.056 41.4495C171.005 41.5045 170.954 41.5448 170.902 41.5705C170.855 41.5925 170.792 41.6035 170.715 41.6035H170.132L170.946 40.2725C170.998 40.1882 171.053 40.1277 171.111 40.091C171.174 40.0507 171.264 40.0305 171.381 40.0305H172.338ZM175.549 43.237C175.67 43.1013 175.798 42.9785 175.934 42.8685C176.069 42.7585 176.212 42.665 176.363 42.588C176.517 42.5073 176.678 42.4468 176.847 42.4065C177.019 42.3625 177.204 42.3405 177.402 42.3405C177.706 42.3405 177.974 42.3918 178.205 42.4945C178.44 42.5935 178.634 42.7365 178.788 42.9235C178.946 43.1068 179.065 43.3287 179.146 43.589C179.226 43.8493 179.267 44.1372 179.267 44.4525V48H178.282V44.4525C178.282 44.0308 178.185 43.7045 177.991 43.4735C177.8 43.2388 177.508 43.1215 177.116 43.1215C176.826 43.1215 176.555 43.1912 176.302 43.3305C176.053 43.4698 175.822 43.6587 175.609 43.897V48H174.625V42.4285H175.213C175.352 42.4285 175.439 42.4963 175.472 42.632L175.549 43.237ZM188.101 42.4285L184.993 49.6445C184.96 49.7178 184.918 49.7765 184.867 49.8205C184.819 49.8645 184.744 49.8865 184.641 49.8865H183.915L184.933 47.6755L182.634 42.4285H183.481C183.565 42.4285 183.631 42.4505 183.679 42.4945C183.73 42.5348 183.765 42.5807 183.783 42.632L185.274 46.141C185.332 46.295 185.382 46.4563 185.422 46.625C185.473 46.4527 185.528 46.2895 185.587 46.1355L187.034 42.632C187.056 42.5733 187.092 42.5257 187.144 42.489C187.199 42.4487 187.259 42.4285 187.325 42.4285H188.101ZM192.523 39.8985V48H191.544V39.8985H192.523ZM197.13 45.492C196.679 45.5067 196.294 45.5433 195.975 45.602C195.66 45.657 195.402 45.7303 195.2 45.822C195.002 45.9137 194.857 46.0218 194.765 46.1465C194.677 46.2712 194.633 46.4105 194.633 46.5645C194.633 46.7112 194.657 46.8377 194.705 46.944C194.753 47.0503 194.817 47.1383 194.897 47.208C194.982 47.274 195.079 47.3235 195.189 47.3565C195.303 47.3858 195.424 47.4005 195.552 47.4005C195.724 47.4005 195.882 47.384 196.025 47.351C196.168 47.3143 196.302 47.263 196.426 47.197C196.555 47.131 196.676 47.0522 196.789 46.9605C196.907 46.8688 197.02 46.7643 197.13 46.647V45.492ZM193.968 43.215C194.276 42.918 194.608 42.6962 194.963 42.5495C195.319 42.4028 195.713 42.3295 196.146 42.3295C196.458 42.3295 196.734 42.3808 196.976 42.4835C197.218 42.5862 197.422 42.7292 197.587 42.9125C197.752 43.0958 197.877 43.3177 197.961 43.578C198.045 43.8383 198.087 44.1243 198.087 44.436V48H197.653C197.558 48 197.484 47.9853 197.433 47.956C197.382 47.923 197.341 47.8607 197.312 47.769L197.202 47.241C197.055 47.3767 196.912 47.4977 196.773 47.604C196.634 47.7067 196.487 47.7947 196.333 47.868C196.179 47.9377 196.014 47.9908 195.838 48.0275C195.666 48.0678 195.473 48.088 195.26 48.088C195.044 48.088 194.841 48.0587 194.65 48C194.459 47.9377 194.292 47.846 194.149 47.725C194.01 47.604 193.898 47.4518 193.814 47.2685C193.733 47.0815 193.693 46.8615 193.693 46.6085C193.693 46.3885 193.753 46.1777 193.874 45.976C193.995 45.7707 194.192 45.5892 194.463 45.4315C194.734 45.2738 195.088 45.1455 195.524 45.0465C195.961 44.9438 196.496 44.8852 197.13 44.8705V44.436C197.13 44.0033 197.037 43.677 196.85 43.457C196.663 43.2333 196.39 43.1215 196.03 43.1215C195.788 43.1215 195.585 43.1527 195.42 43.215C195.259 43.2737 195.117 43.3415 194.996 43.4185C194.879 43.4918 194.776 43.5597 194.688 43.622C194.604 43.6807 194.52 43.71 194.435 43.71C194.369 43.71 194.313 43.6935 194.265 43.6605C194.217 43.6238 194.177 43.5798 194.144 43.5285L193.968 43.215ZM204.104 48.088C203.664 48.088 203.325 47.9652 203.086 47.7195C202.852 47.4738 202.734 47.12 202.734 46.658V43.248H202.063C202.005 43.248 201.955 43.2315 201.915 43.1985C201.874 43.1618 201.854 43.1068 201.854 43.0335V42.643L202.767 42.5275L202.993 40.806C203.004 40.751 203.028 40.707 203.064 40.674C203.105 40.6373 203.156 40.619 203.218 40.619H203.713V42.5385H205.325V43.248H203.713V46.592C203.713 46.8267 203.77 47.0008 203.884 47.1145C203.997 47.2282 204.144 47.285 204.324 47.285C204.426 47.285 204.514 47.2722 204.588 47.2465C204.665 47.2172 204.731 47.186 204.786 47.153C204.841 47.12 204.887 47.0907 204.923 47.065C204.964 47.0357 204.998 47.021 205.028 47.021C205.079 47.021 205.125 47.0522 205.165 47.1145L205.451 47.582C205.283 47.7397 205.079 47.8643 204.841 47.956C204.602 48.044 204.357 48.088 204.104 48.088ZM210.032 44.6065C210.032 44.3792 209.999 44.172 209.933 43.985C209.871 43.7943 209.777 43.6312 209.653 43.4955C209.532 43.3562 209.383 43.2498 209.207 43.1765C209.031 43.0995 208.831 43.061 208.608 43.061C208.138 43.061 207.766 43.1985 207.491 43.4735C207.22 43.7448 207.051 44.1225 206.985 44.6065H210.032ZM210.824 47.219C210.703 47.3657 210.558 47.494 210.39 47.604C210.221 47.7103 210.04 47.7983 209.845 47.868C209.655 47.9377 209.457 47.989 209.251 48.022C209.046 48.0587 208.842 48.077 208.641 48.077C208.256 48.077 207.9 48.0128 207.574 47.8845C207.251 47.7525 206.971 47.5618 206.732 47.3125C206.498 47.0595 206.314 46.7478 206.182 46.3775C206.05 46.0072 205.984 45.5818 205.984 45.1015C205.984 44.7128 206.043 44.3498 206.16 44.0125C206.281 43.6752 206.454 43.3837 206.677 43.138C206.901 42.8887 207.174 42.6943 207.497 42.555C207.819 42.412 208.182 42.3405 208.586 42.3405C208.919 42.3405 209.227 42.3973 209.51 42.511C209.796 42.621 210.041 42.7823 210.247 42.995C210.456 43.204 210.619 43.4643 210.736 43.776C210.854 44.084 210.912 44.436 210.912 44.832C210.912 44.986 210.896 45.0887 210.863 45.14C210.83 45.1913 210.767 45.217 210.676 45.217H206.952C206.963 45.569 207.011 45.8752 207.095 46.1355C207.183 46.3958 207.304 46.614 207.458 46.79C207.612 46.9623 207.796 47.0925 208.008 47.1805C208.221 47.2648 208.459 47.307 208.723 47.307C208.969 47.307 209.18 47.2795 209.356 47.2245C209.535 47.1658 209.689 47.1035 209.818 47.0375C209.946 46.9715 210.052 46.911 210.137 46.856C210.225 46.7973 210.3 46.768 210.362 46.768C210.443 46.768 210.505 46.7992 210.549 46.8615L210.824 47.219ZM215.992 43.4185C215.963 43.4588 215.934 43.49 215.904 43.512C215.875 43.534 215.835 43.545 215.783 43.545C215.728 43.545 215.668 43.523 215.602 43.479C215.536 43.4313 215.453 43.38 215.354 43.325C215.259 43.27 215.14 43.2205 214.997 43.1765C214.858 43.1288 214.685 43.105 214.48 43.105C214.205 43.105 213.963 43.1545 213.754 43.2535C213.545 43.3488 213.369 43.4882 213.226 43.6715C213.087 43.8548 212.98 44.0767 212.907 44.337C212.837 44.5973 212.802 44.8888 212.802 45.2115C212.802 45.5488 212.841 45.8495 212.918 46.1135C212.995 46.3738 213.103 46.5938 213.242 46.7735C213.385 46.9495 213.556 47.0852 213.754 47.1805C213.956 47.2722 214.181 47.318 214.43 47.318C214.669 47.318 214.865 47.2905 215.019 47.2355C215.173 47.1768 215.299 47.1127 215.398 47.043C215.501 46.9733 215.585 46.911 215.651 46.856C215.721 46.7973 215.789 46.768 215.855 46.768C215.936 46.768 215.998 46.7992 216.042 46.8615L216.317 47.219C216.196 47.3693 216.058 47.4977 215.904 47.604C215.75 47.7103 215.584 47.8002 215.404 47.8735C215.228 47.9432 215.043 47.9945 214.848 48.0275C214.654 48.0605 214.456 48.077 214.254 48.077C213.906 48.077 213.582 48.0128 213.281 47.8845C212.984 47.7562 212.725 47.571 212.505 47.329C212.285 47.0833 212.113 46.7827 211.988 46.427C211.864 46.0713 211.801 45.6662 211.801 45.2115C211.801 44.7972 211.858 44.414 211.972 44.062C212.089 43.71 212.258 43.4075 212.478 43.1545C212.702 42.8978 212.975 42.698 213.297 42.555C213.624 42.412 213.998 42.3405 214.419 42.3405C214.812 42.3405 215.156 42.4047 215.453 42.533C215.754 42.6577 216.02 42.8355 216.251 43.0665L215.992 43.4185ZM218.292 43.237C218.413 43.1013 218.541 42.9785 218.677 42.8685C218.812 42.7585 218.955 42.665 219.106 42.588C219.26 42.5073 219.421 42.4468 219.59 42.4065C219.762 42.3625 219.947 42.3405 220.145 42.3405C220.45 42.3405 220.717 42.3918 220.948 42.4945C221.183 42.5935 221.377 42.7365 221.531 42.9235C221.689 43.1068 221.808 43.3287 221.889 43.589C221.969 43.8493 222.01 44.1372 222.01 44.4525V48H221.025V44.4525C221.025 44.0308 220.928 43.7045 220.734 43.4735C220.543 43.2388 220.252 43.1215 219.859 43.1215C219.57 43.1215 219.298 43.1912 219.045 43.3305C218.796 43.4698 218.565 43.6587 218.352 43.897V48H217.368V42.4285H217.956C218.096 42.4285 218.182 42.4963 218.215 42.632L218.292 43.237ZM225.85 42.3405C226.257 42.3405 226.624 42.4083 226.95 42.544C227.276 42.6797 227.555 42.8722 227.786 43.1215C228.017 43.3708 228.193 43.6733 228.314 44.029C228.439 44.381 228.501 44.7752 228.501 45.2115C228.501 45.6515 228.439 46.0475 228.314 46.3995C228.193 46.7515 228.017 47.0522 227.786 47.3015C227.555 47.5508 227.276 47.7433 226.95 47.879C226.624 48.011 226.257 48.077 225.85 48.077C225.439 48.077 225.069 48.011 224.739 47.879C224.413 47.7433 224.134 47.5508 223.903 47.3015C223.672 47.0522 223.494 46.7515 223.37 46.3995C223.249 46.0475 223.188 45.6515 223.188 45.2115C223.188 44.7752 223.249 44.381 223.37 44.029C223.494 43.6733 223.672 43.3708 223.903 43.1215C224.134 42.8722 224.413 42.6797 224.739 42.544C225.069 42.4083 225.439 42.3405 225.85 42.3405ZM225.85 47.3125C226.4 47.3125 226.811 47.1292 227.082 46.7625C227.353 46.3922 227.489 45.877 227.489 45.217C227.489 44.5533 227.353 44.0363 227.082 43.666C226.811 43.2957 226.4 43.1105 225.85 43.1105C225.571 43.1105 225.328 43.1582 225.119 43.2535C224.913 43.3488 224.741 43.4863 224.602 43.666C224.466 43.8457 224.363 44.0675 224.294 44.3315C224.228 44.5918 224.195 44.887 224.195 45.217C224.195 45.877 224.33 46.3922 224.602 46.7625C224.877 47.1292 225.293 47.3125 225.85 47.3125ZM230.755 39.8985V48H229.776V39.8985H230.755ZM234.691 42.3405C235.098 42.3405 235.465 42.4083 235.791 42.544C236.117 42.6797 236.396 42.8722 236.627 43.1215C236.858 43.3708 237.034 43.6733 237.155 44.029C237.28 44.381 237.342 44.7752 237.342 45.2115C237.342 45.6515 237.28 46.0475 237.155 46.3995C237.034 46.7515 236.858 47.0522 236.627 47.3015C236.396 47.5508 236.117 47.7433 235.791 47.879C235.465 48.011 235.098 48.077 234.691 48.077C234.28 48.077 233.91 48.011 233.58 47.879C233.254 47.7433 232.975 47.5508 232.744 47.3015C232.513 47.0522 232.335 46.7515 232.21 46.3995C232.089 46.0475 232.029 45.6515 232.029 45.2115C232.029 44.7752 232.089 44.381 232.21 44.029C232.335 43.6733 232.513 43.3708 232.744 43.1215C232.975 42.8722 233.254 42.6797 233.58 42.544C233.91 42.4083 234.28 42.3405 234.691 42.3405ZM234.691 47.3125C235.241 47.3125 235.652 47.1292 235.923 46.7625C236.194 46.3922 236.33 45.877 236.33 45.217C236.33 44.5533 236.194 44.0363 235.923 43.666C235.652 43.2957 235.241 43.1105 234.691 43.1105C234.412 43.1105 234.168 43.1582 233.959 43.2535C233.754 43.3488 233.582 43.4863 233.442 43.666C233.307 43.8457 233.204 44.0675 233.134 44.3315C233.068 44.5918 233.035 44.887 233.035 45.217C233.035 45.877 233.171 46.3922 233.442 46.7625C233.717 47.1292 234.134 47.3125 234.691 47.3125ZM240.493 45.2775C240.691 45.2775 240.865 45.25 241.015 45.195C241.166 45.14 241.292 45.063 241.395 44.964C241.498 44.865 241.575 44.7477 241.626 44.612C241.677 44.4727 241.703 44.3205 241.703 44.1555C241.703 43.8145 241.598 43.5432 241.389 43.3415C241.184 43.1398 240.885 43.039 240.493 43.039C240.097 43.039 239.794 43.1398 239.585 43.3415C239.38 43.5432 239.277 43.8145 239.277 44.1555C239.277 44.3205 239.303 44.4727 239.354 44.612C239.409 44.7477 239.488 44.865 239.591 44.964C239.694 45.063 239.82 45.14 239.97 45.195C240.121 45.25 240.295 45.2775 240.493 45.2775ZM242.258 48.3025C242.258 48.1668 242.22 48.0568 242.143 47.9725C242.066 47.8882 241.961 47.8222 241.829 47.7745C241.701 47.7268 241.551 47.6938 241.378 47.6755C241.206 47.6535 241.023 47.637 240.828 47.626C240.638 47.615 240.443 47.604 240.245 47.593C240.047 47.582 239.857 47.5637 239.673 47.538C239.468 47.6333 239.299 47.7543 239.167 47.901C239.039 48.044 238.975 48.2127 238.975 48.407C238.975 48.5317 239.006 48.6472 239.068 48.7535C239.134 48.8635 239.233 48.957 239.365 49.034C239.497 49.1147 239.662 49.177 239.86 49.221C240.062 49.2687 240.299 49.2925 240.57 49.2925C240.834 49.2925 241.07 49.2687 241.279 49.221C241.488 49.1733 241.664 49.1055 241.807 49.0175C241.954 48.9295 242.066 48.825 242.143 48.704C242.22 48.583 242.258 48.4492 242.258 48.3025ZM243.254 42.6485V43.0115C243.254 43.1325 243.177 43.2095 243.023 43.2425L242.39 43.325C242.515 43.567 242.577 43.8347 242.577 44.128C242.577 44.3993 242.524 44.6468 242.418 44.8705C242.315 45.0905 242.172 45.2793 241.989 45.437C241.806 45.5947 241.586 45.7157 241.329 45.8C241.072 45.8843 240.794 45.9265 240.493 45.9265C240.233 45.9265 239.987 45.8953 239.756 45.833C239.639 45.9063 239.549 45.9852 239.486 46.0695C239.424 46.1502 239.393 46.2327 239.393 46.317C239.393 46.449 239.446 46.5498 239.552 46.6195C239.662 46.6855 239.805 46.7332 239.981 46.7625C240.157 46.7918 240.357 46.8102 240.581 46.8175C240.808 46.8248 241.039 46.8377 241.274 46.856C241.512 46.8707 241.743 46.8982 241.967 46.9385C242.194 46.9788 242.396 47.0448 242.572 47.1365C242.748 47.2282 242.889 47.3547 242.995 47.516C243.105 47.6773 243.16 47.8863 243.16 48.143C243.16 48.3813 243.1 48.6123 242.979 48.836C242.862 49.0597 242.691 49.2577 242.467 49.43C242.244 49.606 241.969 49.7453 241.642 49.848C241.32 49.9543 240.955 50.0075 240.548 50.0075C240.141 50.0075 239.785 49.9672 239.481 49.8865C239.177 49.8058 238.924 49.6977 238.722 49.562C238.52 49.4263 238.368 49.2687 238.265 49.089C238.166 48.913 238.117 48.7278 238.117 48.5335C238.117 48.2585 238.203 48.0257 238.375 47.835C238.548 47.6443 238.784 47.4922 239.085 47.3785C238.92 47.3052 238.788 47.208 238.689 47.087C238.594 46.9623 238.546 46.7955 238.546 46.5865C238.546 46.5058 238.561 46.4233 238.59 46.339C238.619 46.251 238.663 46.1648 238.722 46.0805C238.784 45.9925 238.859 45.91 238.947 45.833C239.035 45.756 239.138 45.6882 239.255 45.6295C238.98 45.4755 238.766 45.272 238.612 45.019C238.458 44.7623 238.381 44.4653 238.381 44.128C238.381 43.8567 238.432 43.611 238.535 43.391C238.641 43.1673 238.788 42.9785 238.975 42.8245C239.162 42.6668 239.384 42.5458 239.64 42.4615C239.901 42.3772 240.185 42.335 240.493 42.335C240.735 42.335 240.96 42.3625 241.169 42.4175C241.378 42.4688 241.569 42.5458 241.741 42.6485H243.254ZM245.306 42.4285V48H244.321V42.4285H245.306ZM246.439 40.0305L245.157 41.4495C245.106 41.5045 245.055 41.5448 245.003 41.5705C244.956 41.5925 244.893 41.6035 244.816 41.6035H244.233L245.047 40.2725C245.099 40.1882 245.154 40.1277 245.212 40.091C245.275 40.0507 245.364 40.0305 245.482 40.0305H246.439ZM249.928 45.492C249.477 45.5067 249.092 45.5433 248.773 45.602C248.458 45.657 248.199 45.7303 247.998 45.822C247.8 45.9137 247.655 46.0218 247.563 46.1465C247.475 46.2712 247.431 46.4105 247.431 46.5645C247.431 46.7112 247.455 46.8377 247.503 46.944C247.55 47.0503 247.615 47.1383 247.695 47.208C247.78 47.274 247.877 47.3235 247.987 47.3565C248.1 47.3858 248.221 47.4005 248.35 47.4005C248.522 47.4005 248.68 47.384 248.823 47.351C248.966 47.3143 249.1 47.263 249.224 47.197C249.353 47.131 249.474 47.0522 249.587 46.9605C249.705 46.8688 249.818 46.7643 249.928 46.647V45.492ZM246.766 43.215C247.074 42.918 247.406 42.6962 247.761 42.5495C248.117 42.4028 248.511 42.3295 248.944 42.3295C249.255 42.3295 249.532 42.3808 249.774 42.4835C250.016 42.5862 250.22 42.7292 250.385 42.9125C250.55 43.0958 250.674 43.3177 250.759 43.578C250.843 43.8383 250.885 44.1243 250.885 44.436V48H250.451C250.355 48 250.282 47.9853 250.231 47.956C250.179 47.923 250.139 47.8607 250.11 47.769L250 47.241C249.853 47.3767 249.71 47.4977 249.571 47.604C249.431 47.7067 249.285 47.7947 249.131 47.868C248.977 47.9377 248.812 47.9908 248.636 48.0275C248.463 48.0678 248.271 48.088 248.058 48.088C247.842 48.088 247.638 48.0587 247.448 48C247.257 47.9377 247.09 47.846 246.947 47.725C246.808 47.604 246.696 47.4518 246.612 47.2685C246.531 47.0815 246.491 46.8615 246.491 46.6085C246.491 46.3885 246.551 46.1777 246.672 45.976C246.793 45.7707 246.989 45.5892 247.261 45.4315C247.532 45.2738 247.886 45.1455 248.322 45.0465C248.759 44.9438 249.294 44.8852 249.928 44.8705V44.436C249.928 44.0033 249.835 43.677 249.648 43.457C249.461 43.2333 249.188 43.1215 248.828 43.1215C248.586 43.1215 248.383 43.1527 248.218 43.215C248.056 43.2737 247.915 43.3415 247.794 43.4185C247.677 43.4918 247.574 43.5597 247.486 43.622C247.402 43.6807 247.318 43.71 247.233 43.71C247.167 43.71 247.11 43.6935 247.063 43.6605C247.015 43.6238 246.975 43.5798 246.942 43.5285L246.766 43.215Z" fill="#FEFEFE"/>
<defs>
<radialGradient id="paint0_radial_26070_1185" cx="0" cy="0" r="1" gradientUnits="userSpaceOnUse" gradientTransform="translate(25.01 29.1978) rotate(90) scale(18.428 18.6135)">
<stop stop-color="#FEFEFE"/>
<stop offset="1" stop-color="#FEFEFE" stop-opacity="0"/>
</radialGradient>
<linearGradient id="paint1_linear_26070_1185" x1="25.01" y1="10.7698" x2="25.01" y2="47.6258" gradientUnits="userSpaceOnUse">
<stop stop-color="#F0F1F3"/>
<stop offset="1" stop-opacity="0"/>
</linearGradient>
</defs>
</svg>
