<svg width="32" height="32" viewBox="0 0 32 32" fill="none" xmlns="http://www.w3.org/2000/svg">
<path d="M0 10.1047V16.8429H1.6V26.946H0V31.9983H25.6L30.4 32V31.9983H32V26.946H30.4V16.8429H32V10.1047L16 0L0 10.1047ZM6.4 26.946V16.8429H9.6V26.946H6.4ZM14.4 26.946V16.8429H17.6V26.946H14.4ZM25.6 26.946H22.4V16.8429H25.6V26.946ZM19.2 10.1047C19.1999 10.5472 19.117 10.9852 18.956 11.394C18.7951 11.8027 18.5592 12.174 18.2619 12.4868C17.9646 12.7996 17.6117 13.0476 17.2234 13.2168C16.835 13.3861 16.4187 13.4731 15.9984 13.473C15.5781 13.4729 15.1619 13.3856 14.7736 13.2162C14.3853 13.0468 14.0325 12.7985 13.7353 12.4856C13.4382 12.1727 13.2025 11.8012 13.0417 11.3924C12.881 10.9836 12.7983 10.5455 12.7984 10.103C12.7986 9.20951 13.136 8.35266 13.7365 7.72099C14.3369 7.08932 15.1511 6.73458 16 6.7348C16.8489 6.73503 17.663 7.0902 18.2631 7.72218C18.8632 8.35417 19.2002 9.21119 19.2 10.1047Z" fill="#003768"/>
</svg>
