<svg width="32" height="32" viewBox="0 0 32 32" fill="none" xmlns="http://www.w3.org/2000/svg">
<path d="M6.66667 29.3333H25.3333C26.804 29.3333 28 28.1373 28 26.6666V7.99996C28 6.52929 26.804 5.33329 25.3333 5.33329H22.6667V2.66663H20V5.33329H12V2.66663H9.33333V5.33329H6.66667C5.196 5.33329 4 6.52929 4 7.99996V26.6666C4 28.1373 5.196 29.3333 6.66667 29.3333ZM13.0653 26.6493H10.6667V24.2506L17.3027 17.624L19.7013 20.0226L13.0653 26.6493ZM20.8307 18.8933L18.432 16.4946L20.2613 14.6666L22.66 17.0653L20.8307 18.8933ZM6.66667 9.33329H25.3333V12H6.66667V9.33329Z" fill="#003768"/>
</svg>
