<svg width="32" height="32" viewBox="0 0 32 32" fill="none" xmlns="http://www.w3.org/2000/svg">
<path d="M26.6666 4H5.33329C3.86263 4 2.66663 5.196 2.66663 6.66667V12C2.66663 13.4707 3.86263 14.6667 5.33329 14.6667H26.6666C28.1373 14.6667 29.3333 13.4707 29.3333 12V6.66667C29.3333 5.196 28.1373 4 26.6666 4ZM5.33329 12V6.66667H26.6666L26.6693 12H5.33329ZM26.6666 17.3333H5.33329C3.86263 17.3333 2.66663 18.5293 2.66663 20V25.3333C2.66663 26.804 3.86263 28 5.33329 28H26.6666C28.1373 28 29.3333 26.804 29.3333 25.3333V20C29.3333 18.5293 28.1373 17.3333 26.6666 17.3333ZM5.33329 25.3333V20H26.6666L26.6693 25.3333H5.33329Z" fill="#003768"/>
<path d="M22.6666 8H25.3333V10.6667H22.6666V8ZM18.6666 8H21.3333V10.6667H18.6666V8ZM22.6666 21.3333H25.3333V24H22.6666V21.3333ZM18.6666 21.3333H21.3333V24H18.6666V21.3333Z" fill="#003768"/>
</svg>
