<svg width="32" height="32" viewBox="0 0 32 32" fill="none" xmlns="http://www.w3.org/2000/svg">
<g clip-path="url(#clip0_25890:4069)">
<path d="M26.6 7.99996H22V5.33329C22 3.86263 20.6246 2.66663 18.9333 2.66663H9.73333C8.04207 2.66663 6.66667 3.86263 6.66667 5.33329V7.99996H2.06667C0.3754 7.99996 -1 9.19596 -1 10.6666V14.6666H29.6667V10.6666C29.6667 9.19596 28.2913 7.99996 26.6 7.99996ZM9.73333 5.33329H18.9333V7.99996H9.73333V5.33329ZM17.4 18.6666H11.2667V16H-1V25.3333C-1 26.804 0.3754 28 2.06667 28H26.6C28.2913 28 29.6667 26.804 29.6667 25.3333V16H17.4V18.6666Z" fill="#003768"/>
</g>
<defs>
<clipPath id="clip0_25890:4069">
<rect width="32" height="32" fill="white"/>
</clipPath>
</defs>
</svg>
