<svg width="32" height="32" viewBox="0 0 32 32" fill="none" xmlns="http://www.w3.org/2000/svg">
<path d="M2.72941 19.5573C2.7742 19.7265 2.85206 19.8851 2.95847 20.024C3.06488 20.1629 3.19775 20.2794 3.34941 20.3667L5.89607 21.8387V24.7707C5.89607 25.1243 6.03655 25.4634 6.2866 25.7135C6.53665 25.9635 6.87578 26.104 7.22941 26.104H10.1614L11.6334 28.6507C11.7514 28.8525 11.92 29.02 12.1224 29.1369C12.3249 29.2538 12.5543 29.316 12.7881 29.3173C13.0201 29.3173 13.2507 29.256 13.4561 29.1373L16.0001 27.6667L18.5467 29.1387C18.8529 29.3152 19.2166 29.3631 19.558 29.2719C19.8995 29.1807 20.1908 28.9577 20.3681 28.652L21.8387 26.1053H24.7707C25.1244 26.1053 25.4635 25.9649 25.7135 25.7148C25.9636 25.4648 26.1041 25.1256 26.1041 24.772V21.84L28.6507 20.368C28.8024 20.2803 28.9354 20.1636 29.0419 20.0246C29.1485 19.8855 29.2266 19.7268 29.2718 19.5575C29.317 19.3883 29.3284 19.2117 29.3053 19.0381C29.2823 18.8644 29.2252 18.6969 29.1374 18.5453L27.6667 16L29.1387 13.456C29.3157 13.1499 29.3638 12.7861 29.2725 12.4446C29.1812 12.103 28.9581 11.8117 28.6521 11.6347L26.1054 10.1627V7.22934C26.1054 6.87571 25.9649 6.53658 25.7149 6.28653C25.4648 6.03648 25.1257 5.896 24.7721 5.896H21.8401L20.3694 3.35067C20.1918 3.04523 19.901 2.82201 19.5601 2.72934C19.391 2.68349 19.2144 2.67167 19.0407 2.69456C18.867 2.71745 18.6995 2.77459 18.5481 2.86267L16.0001 4.33334L13.4547 2.86134C13.1487 2.68442 12.7849 2.63631 12.4433 2.72757C12.1018 2.81883 11.8104 3.042 11.6334 3.348L10.1614 5.89467H7.22941C6.87578 5.89467 6.53665 6.03515 6.2866 6.28519C6.03655 6.53524 5.89607 6.87438 5.89607 7.228V10.16L3.34941 11.632C3.04349 11.8098 2.8205 12.1016 2.72929 12.4435C2.63807 12.7853 2.68606 13.1494 2.86274 13.456L4.33474 16L2.86274 18.544C2.68672 18.8511 2.63882 19.2152 2.72941 19.5573ZM16.0001 17.3333C11.3601 17.3333 10.6667 14.828 10.6667 13.3333C10.6667 11.6173 12.0387 9.88934 14.6667 9.44667V8.016H17.3334V9.49467C19.6454 10.0413 20.5334 11.9653 20.5334 13.3333H19.2001L17.8667 13.3573C17.8481 12.8507 17.5801 12 16.0001 12C14.2681 12 13.3334 12.6867 13.3334 13.3333C13.3334 13.832 13.3334 14.6667 16.0001 14.6667C20.6401 14.6667 21.3334 17.172 21.3334 18.6667C21.3334 20.3827 19.9614 22.1107 17.3334 22.5533V24H14.6667V22.56C11.5481 22.0707 10.6667 19.8893 10.6667 18.6667H13.3334C13.3481 18.8573 13.5454 20 16.0001 20C17.8401 20 18.6667 19.22 18.6667 18.6667C18.6667 18.2333 18.6667 17.3333 16.0001 17.3333Z" fill="#003768"/>
</svg>
